<svg xmlns="http://www.w3.org/2000/svg" fill="white" version="1.1" xmlns:xlink="http://www.w3.org/1999/xlink" xmlns:svgjs="http://svgjs.com/svgjs" width="1440" height="560" preserveAspectRatio="none" viewBox="0 0 1440 560"><g mask="url(&quot;#SvgjsMask1099&quot;)" fill="none"><path d="M-61.03 382.88L-61.03 382.88" stroke="rgba(154, 140, 140, 1)" stroke-width="1.5"></path><path d="M-61.03 382.88L71.11 401.84" stroke="rgba(154, 140, 140, 1)" stroke-width="1.5"></path><path d="M-61.03 382.88L-107.95 529.91" stroke="rgba(154, 140, 140, 1)" stroke-width="1.5"></path><path d="M-61.03 382.88L51.27 490.79" stroke="rgba(154, 140, 140, 1)" stroke-width="1.5"></path><path d="M-61.03 382.88L223.25 366.97" stroke="rgba(154, 140, 140, 1)" stroke-width="1.5"></path><path d="M-107.95 529.91L-107.95 529.91" stroke="rgba(154, 140, 140, 1)" stroke-width="1.5"></path><path d="M-107.95 529.91L51.27 490.79" stroke="rgba(154, 140, 140, 1)" stroke-width="1.5"></path><path d="M-107.95 529.91L-53.92 689.19" stroke="rgba(154, 140, 140, 1)" stroke-width="1.5"></path><path d="M-107.95 529.91L71.11 401.84" stroke="rgba(154, 140, 140, 1)" stroke-width="1.5"></path><path d="M-53.92 689.19L-53.92 689.19" stroke="rgba(154, 140, 140, 1)" stroke-width="1.5"></path><path d="M-53.92 689.19L51.27 490.79" stroke="rgba(154, 140, 140, 1)" stroke-width="1.5"></path><path d="M-53.92 689.19L193.62 652.23" stroke="rgba(154, 140, 140, 1)" stroke-width="1.5"></path><path d="M-53.92 689.19L-61.03 382.88" stroke="rgba(154, 140, 140, 1)" stroke-width="1.5"></path><path d="M71.11 401.84L71.11 401.84" stroke="rgba(154, 140, 140, 1)" stroke-width="1.5"></path><path d="M71.11 401.84L51.27 490.79" stroke="rgba(154, 140, 140, 1)" stroke-width="1.5"></path><path d="M51.27 490.79L51.27 490.79" stroke="rgba(154, 140, 140, 1)" stroke-width="1.5"></path><path d="M51.27 490.79L223.25 366.97" stroke="rgba(154, 140, 140, 1)" stroke-width="1.5"></path><path d="M51.27 490.79L193.62 652.23" stroke="rgba(154, 140, 140, 1)" stroke-width="1.5"></path><path d="M51.27 490.79L261.68 548.09" stroke="rgba(154, 140, 140, 1)" stroke-width="1.5"></path><path d="M223.25 366.97L223.25 366.97" stroke="rgba(154, 140, 140, 1)" stroke-width="1.5"></path><path d="M223.25 366.97L360.2 412.43" stroke="rgba(154, 140, 140, 1)" stroke-width="1.5"></path><path d="M223.25 366.97L71.11 401.84" stroke="rgba(154, 140, 140, 1)" stroke-width="1.5"></path><path d="M223.25 366.97L261.68 548.09" stroke="rgba(154, 140, 140, 1)" stroke-width="1.5"></path><path d="M223.25 366.97L379.77 533.23" stroke="rgba(154, 140, 140, 1)" stroke-width="1.5"></path><path d="M261.68 548.09L261.68 548.09" stroke="rgba(154, 140, 140, 1)" stroke-width="1.5"></path><path d="M261.68 548.09L379.77 533.23" stroke="rgba(154, 140, 140, 1)" stroke-width="1.5"></path><path d="M261.68 548.09L193.62 652.23" stroke="rgba(154, 140, 140, 1)" stroke-width="1.5"></path><path d="M261.68 548.09L360.2 412.43" stroke="rgba(154, 140, 140, 1)" stroke-width="1.5"></path><path d="M193.62 652.23L193.62 652.23" stroke="rgba(154, 140, 140, 1)" stroke-width="1.5"></path><path d="M193.62 652.23L382.35 704.86" stroke="rgba(154, 140, 140, 1)" stroke-width="1.5"></path><path d="M360.2 412.43L360.2 412.43" stroke="rgba(154, 140, 140, 1)" stroke-width="1.5"></path><path d="M360.2 412.43L379.77 533.23" stroke="rgba(154, 140, 140, 1)" stroke-width="1.5"></path><path d="M379.77 533.23L379.77 533.23" stroke="rgba(154, 140, 140, 1)" stroke-width="1.5"></path><path d="M379.77 533.23L548.72 546.14" stroke="rgba(154, 140, 140, 1)" stroke-width="1.5"></path><path d="M379.77 533.23L382.35 704.86" stroke="rgba(154, 140, 140, 1)" stroke-width="1.5"></path><path d="M379.77 533.23L507.59 674.14" stroke="rgba(154, 140, 140, 1)" stroke-width="1.5"></path><path d="M379.77 533.23L525.75 372.28" stroke="rgba(154, 140, 140, 1)" stroke-width="1.5"></path><path d="M382.35 704.86L382.35 704.86" stroke="rgba(154, 140, 140, 1)" stroke-width="1.5"></path><path d="M382.35 704.86L507.59 674.14" stroke="rgba(154, 140, 140, 1)" stroke-width="1.5"></path><path d="M525.75 372.28L525.75 372.28" stroke="rgba(154, 140, 140, 1)" stroke-width="1.5"></path><path d="M525.75 372.28L661.15 401.81" stroke="rgba(154, 140, 140, 1)" stroke-width="1.5"></path><path d="M525.75 372.28L360.2 412.43" stroke="rgba(154, 140, 140, 1)" stroke-width="1.5"></path><path d="M525.75 372.28L548.72 546.14" stroke="rgba(154, 140, 140, 1)" stroke-width="1.5"></path><path d="M525.75 372.28L682.7 504.51" stroke="rgba(154, 140, 140, 1)" stroke-width="1.5"></path><path d="M548.72 546.14L548.72 546.14" stroke="rgba(154, 140, 140, 1)" stroke-width="1.5"></path><path d="M548.72 546.14L507.59 674.14" stroke="rgba(154, 140, 140, 1)" stroke-width="1.5"></path><path d="M507.59 674.14L507.59 674.14" stroke="rgba(154, 140, 140, 1)" stroke-width="1.5"></path><path d="M507.59 674.14L688.17 644.12" stroke="rgba(154, 140, 140, 1)" stroke-width="1.5"></path><path d="M687.93 226.86L687.93 226.86" stroke="rgba(154, 140, 140, 1)" stroke-width="1.5"></path><path d="M687.93 226.86L844.47 244.27" stroke="rgba(154, 140, 140, 1)" stroke-width="1.5"></path><path d="M687.93 226.86L661.15 401.81" stroke="rgba(154, 140, 140, 1)" stroke-width="1.5"></path><path d="M687.93 226.86L799.98 387.19" stroke="rgba(154, 140, 140, 1)" stroke-width="1.5"></path><path d="M687.93 226.86L525.75 372.28" stroke="rgba(154, 140, 140, 1)" stroke-width="1.5"></path><path d="M687.93 226.86L953.6 200.71" stroke="rgba(154, 140, 140, 1)" stroke-width="1.5"></path><path d="M661.15 401.81L661.15 401.81" stroke="rgba(154, 140, 140, 1)" stroke-width="1.5"></path><path d="M661.15 401.81L682.7 504.51" stroke="rgba(154, 140, 140, 1)" stroke-width="1.5"></path><path d="M661.15 401.81L799.98 387.19" stroke="rgba(154, 140, 140, 1)" stroke-width="1.5"></path><path d="M682.7 504.51L682.7 504.51" stroke="rgba(154, 140, 140, 1)" stroke-width="1.5"></path><path d="M682.7 504.51L688.17 644.12" stroke="rgba(154, 140, 140, 1)" stroke-width="1.5"></path><path d="M682.7 504.51L548.72 546.14" stroke="rgba(154, 140, 140, 1)" stroke-width="1.5"></path><path d="M682.7 504.51L799.98 387.19" stroke="rgba(154, 140, 140, 1)" stroke-width="1.5"></path><path d="M688.17 644.12L688.17 644.12" stroke="rgba(154, 140, 140, 1)" stroke-width="1.5"></path><path d="M688.17 644.12L824.07 700.24" stroke="rgba(154, 140, 140, 1)" stroke-width="1.5"></path><path d="M688.17 644.12L548.72 546.14" stroke="rgba(154, 140, 140, 1)" stroke-width="1.5"></path><path d="M844.47 244.27L844.47 244.27" stroke="rgba(154, 140, 140, 1)" stroke-width="1.5"></path><path d="M844.47 244.27L953.6 200.71" stroke="rgba(154, 140, 140, 1)" stroke-width="1.5"></path><path d="M844.47 244.27L799.98 387.19" stroke="rgba(154, 140, 140, 1)" stroke-width="1.5"></path><path d="M844.47 244.27L998.53 338.05" stroke="rgba(154, 140, 140, 1)" stroke-width="1.5"></path><path d="M799.98 387.19L799.98 387.19" stroke="rgba(154, 140, 140, 1)" stroke-width="1.5"></path><path d="M799.98 387.19L998.53 338.05" stroke="rgba(154, 140, 140, 1)" stroke-width="1.5"></path><path d="M799.98 387.19L974.41 539.7" stroke="rgba(154, 140, 140, 1)" stroke-width="1.5"></path><path d="M824.07 700.24L824.07 700.24" stroke="rgba(154, 140, 140, 1)" stroke-width="1.5"></path><path d="M824.07 700.24L973.87 663.33" stroke="rgba(154, 140, 140, 1)" stroke-width="1.5"></path><path d="M971.65 -78.49L971.65 -78.49" stroke="rgba(154, 140, 140, 1)" stroke-width="1.5"></path><path d="M971.65 -78.49L1130.07 -71.5" stroke="rgba(154, 140, 140, 1)" stroke-width="1.5"></path><path d="M971.65 -78.49L999.57 111.2" stroke="rgba(154, 140, 140, 1)" stroke-width="1.5"></path><path d="M971.65 -78.49L1147.95 55.58" stroke="rgba(154, 140, 140, 1)" stroke-width="1.5"></path><path d="M971.65 -78.49L953.6 200.71" stroke="rgba(154, 140, 140, 1)" stroke-width="1.5"></path><path d="M999.57 111.2L999.57 111.2" stroke="rgba(154, 140, 140, 1)" stroke-width="1.5"></path><path d="M999.57 111.2L953.6 200.71" stroke="rgba(154, 140, 140, 1)" stroke-width="1.5"></path><path d="M999.57 111.2L1097.5 196.54" stroke="rgba(154, 140, 140, 1)" stroke-width="1.5"></path><path d="M999.57 111.2L1147.95 55.58" stroke="rgba(154, 140, 140, 1)" stroke-width="1.5"></path><path d="M953.6 200.71L953.6 200.71" stroke="rgba(154, 140, 140, 1)" stroke-width="1.5"></path><path d="M953.6 200.71L1097.5 196.54" stroke="rgba(154, 140, 140, 1)" stroke-width="1.5"></path><path d="M953.6 200.71L998.53 338.05" stroke="rgba(154, 140, 140, 1)" stroke-width="1.5"></path><path d="M998.53 338.05L998.53 338.05" stroke="rgba(154, 140, 140, 1)" stroke-width="1.5"></path><path d="M998.53 338.05L1147.71 360.04" stroke="rgba(154, 140, 140, 1)" stroke-width="1.5"></path><path d="M974.41 539.7L974.41 539.7" stroke="rgba(154, 140, 140, 1)" stroke-width="1.5"></path><path d="M974.41 539.7L973.87 663.33" stroke="rgba(154, 140, 140, 1)" stroke-width="1.5"></path><path d="M974.41 539.7L1098.21 525.58" stroke="rgba(154, 140, 140, 1)" stroke-width="1.5"></path><path d="M974.41 539.7L998.53 338.05" stroke="rgba(154, 140, 140, 1)" stroke-width="1.5"></path><path d="M974.41 539.7L1118.41 705.61" stroke="rgba(154, 140, 140, 1)" stroke-width="1.5"></path><path d="M974.41 539.7L824.07 700.24" stroke="rgba(154, 140, 140, 1)" stroke-width="1.5"></path><path d="M973.87 663.33L973.87 663.33" stroke="rgba(154, 140, 140, 1)" stroke-width="1.5"></path><path d="M973.87 663.33L1118.41 705.61" stroke="rgba(154, 140, 140, 1)" stroke-width="1.5"></path><path d="M973.87 663.33L1098.21 525.58" stroke="rgba(154, 140, 140, 1)" stroke-width="1.5"></path><path d="M1130.07 -71.5L1130.07 -71.5" stroke="rgba(154, 140, 140, 1)" stroke-width="1.5"></path><path d="M1130.07 -71.5L1147.95 55.58" stroke="rgba(154, 140, 140, 1)" stroke-width="1.5"></path><path d="M1130.07 -71.5L1271.77 -71.36" stroke="rgba(154, 140, 140, 1)" stroke-width="1.5"></path><path d="M1130.07 -71.5L999.57 111.2" stroke="rgba(154, 140, 140, 1)" stroke-width="1.5"></path><path d="M1130.07 -71.5L1263.88 110.8" stroke="rgba(154, 140, 140, 1)" stroke-width="1.5"></path><path d="M1130.07 -71.5L1097.5 196.54" stroke="rgba(154, 140, 140, 1)" stroke-width="1.5"></path><path d="M1147.95 55.58L1147.95 55.58" stroke="rgba(154, 140, 140, 1)" stroke-width="1.5"></path><path d="M1147.95 55.58L1263.88 110.8" stroke="rgba(154, 140, 140, 1)" stroke-width="1.5"></path><path d="M1097.5 196.54L1097.5 196.54" stroke="rgba(154, 140, 140, 1)" stroke-width="1.5"></path><path d="M1097.5 196.54L1147.95 55.58" stroke="rgba(154, 140, 140, 1)" stroke-width="1.5"></path><path d="M1147.71 360.04L1147.71 360.04" stroke="rgba(154, 140, 140, 1)" stroke-width="1.5"></path><path d="M1147.71 360.04L1264.14 392.14" stroke="rgba(154, 140, 140, 1)" stroke-width="1.5"></path><path d="M1098.21 525.58L1098.21 525.58" stroke="rgba(154, 140, 140, 1)" stroke-width="1.5"></path><path d="M1098.21 525.58L1245.16 544.17" stroke="rgba(154, 140, 140, 1)" stroke-width="1.5"></path><path d="M1098.21 525.58L1147.71 360.04" stroke="rgba(154, 140, 140, 1)" stroke-width="1.5"></path><path d="M1098.21 525.58L1118.41 705.61" stroke="rgba(154, 140, 140, 1)" stroke-width="1.5"></path><path d="M1118.41 705.61L1118.41 705.61" stroke="rgba(154, 140, 140, 1)" stroke-width="1.5"></path><path d="M1118.41 705.61L1264.06 669.74" stroke="rgba(154, 140, 140, 1)" stroke-width="1.5"></path><path d="M1271.77 -71.36L1271.77 -71.36" stroke="rgba(154, 140, 140, 1)" stroke-width="1.5"></path><path d="M1271.77 -71.36L1428.46 -53.37" stroke="rgba(154, 140, 140, 1)" stroke-width="1.5"></path><path d="M1271.77 -71.36L1147.95 55.58" stroke="rgba(154, 140, 140, 1)" stroke-width="1.5"></path><path d="M1271.77 -71.36L1410.22 42.19" stroke="rgba(154, 140, 140, 1)" stroke-width="1.5"></path><path d="M1271.77 -71.36L1263.88 110.8" stroke="rgba(154, 140, 140, 1)" stroke-width="1.5"></path><path d="M1271.77 -71.36L1301.63 205.71" stroke="rgba(154, 140, 140, 1)" stroke-width="1.5"></path><path d="M1263.88 110.8L1263.88 110.8" stroke="rgba(154, 140, 140, 1)" stroke-width="1.5"></path><path d="M1263.88 110.8L1301.63 205.71" stroke="rgba(154, 140, 140, 1)" stroke-width="1.5"></path><path d="M1263.88 110.8L1410.22 42.19" stroke="rgba(154, 140, 140, 1)" stroke-width="1.5"></path><path d="M1263.88 110.8L1097.5 196.54" stroke="rgba(154, 140, 140, 1)" stroke-width="1.5"></path><path d="M1301.63 205.71L1301.63 205.71" stroke="rgba(154, 140, 140, 1)" stroke-width="1.5"></path><path d="M1301.63 205.71L1433.14 199.39" stroke="rgba(154, 140, 140, 1)" stroke-width="1.5"></path><path d="M1264.14 392.14L1264.14 392.14" stroke="rgba(154, 140, 140, 1)" stroke-width="1.5"></path><path d="M1264.14 392.14L1389.66 369.93" stroke="rgba(154, 140, 140, 1)" stroke-width="1.5"></path><path d="M1264.14 392.14L1245.16 544.17" stroke="rgba(154, 140, 140, 1)" stroke-width="1.5"></path><path d="M1245.16 544.17L1245.16 544.17" stroke="rgba(154, 140, 140, 1)" stroke-width="1.5"></path><path d="M1245.16 544.17L1264.06 669.74" stroke="rgba(154, 140, 140, 1)" stroke-width="1.5"></path><path d="M1264.06 669.74L1264.06 669.74" stroke="rgba(154, 140, 140, 1)" stroke-width="1.5"></path><path d="M1264.06 669.74L1448.62 651.05" stroke="rgba(154, 140, 140, 1)" stroke-width="1.5"></path><path d="M1264.06 669.74L1098.21 525.58" stroke="rgba(154, 140, 140, 1)" stroke-width="1.5"></path><path d="M1428.46 -53.37L1428.46 -53.37" stroke="rgba(154, 140, 140, 1)" stroke-width="1.5"></path><path d="M1428.46 -53.37L1410.22 42.19" stroke="rgba(154, 140, 140, 1)" stroke-width="1.5"></path><path d="M1428.46 -53.37L1585.57 80.75" stroke="rgba(154, 140, 140, 1)" stroke-width="1.5"></path><path d="M1428.46 -53.37L1263.88 110.8" stroke="rgba(154, 140, 140, 1)" stroke-width="1.5"></path><path d="M1428.46 -53.37L1433.14 199.39" stroke="rgba(154, 140, 140, 1)" stroke-width="1.5"></path><path d="M1410.22 42.19L1410.22 42.19" stroke="rgba(154, 140, 140, 1)" stroke-width="1.5"></path><path d="M1410.22 42.19L1433.14 199.39" stroke="rgba(154, 140, 140, 1)" stroke-width="1.5"></path><path d="M1433.14 199.39L1433.14 199.39" stroke="rgba(154, 140, 140, 1)" stroke-width="1.5"></path><path d="M1433.14 199.39L1389.66 369.93" stroke="rgba(154, 140, 140, 1)" stroke-width="1.5"></path><path d="M1389.66 369.93L1389.66 369.93" stroke="rgba(154, 140, 140, 1)" stroke-width="1.5"></path><path d="M1389.66 369.93L1301.63 205.71" stroke="rgba(154, 140, 140, 1)" stroke-width="1.5"></path><path d="M1389.66 369.93L1460.07 561.03" stroke="rgba(154, 140, 140, 1)" stroke-width="1.5"></path><path d="M1389.66 369.93L1598.04 382.85" stroke="rgba(154, 140, 140, 1)" stroke-width="1.5"></path><path d="M1460.07 561.03L1460.07 561.03" stroke="rgba(154, 140, 140, 1)" stroke-width="1.5"></path><path d="M1460.07 561.03L1448.62 651.05" stroke="rgba(154, 140, 140, 1)" stroke-width="1.5"></path><path d="M1460.07 561.03L1561.83 666.4" stroke="rgba(154, 140, 140, 1)" stroke-width="1.5"></path><path d="M1448.62 651.05L1448.62 651.05" stroke="rgba(154, 140, 140, 1)" stroke-width="1.5"></path><path d="M1448.62 651.05L1561.83 666.4" stroke="rgba(154, 140, 140, 1)" stroke-width="1.5"></path><path d="M1448.62 651.05L1604.19 495.62" stroke="rgba(154, 140, 140, 1)" stroke-width="1.5"></path><path d="M1448.62 651.05L1245.16 544.17" stroke="rgba(154, 140, 140, 1)" stroke-width="1.5"></path><path d="M1585.57 80.75L1585.57 80.75" stroke="rgba(154, 140, 140, 1)" stroke-width="1.5"></path><path d="M1585.57 80.75L1410.22 42.19" stroke="rgba(154, 140, 140, 1)" stroke-width="1.5"></path><path d="M1598.04 382.85L1598.04 382.85" stroke="rgba(154, 140, 140, 1)" stroke-width="1.5"></path><path d="M1598.04 382.85L1604.19 495.62" stroke="rgba(154, 140, 140, 1)" stroke-width="1.5"></path><path d="M1598.04 382.85L1460.07 561.03" stroke="rgba(154, 140, 140, 1)" stroke-width="1.5"></path><path d="M1598.04 382.85L1433.14 199.39" stroke="rgba(154, 140, 140, 1)" stroke-width="1.5"></path><path d="M1598.04 382.85L1561.83 666.4" stroke="rgba(154, 140, 140, 1)" stroke-width="1.5"></path><path d="M1598.04 382.85L1585.57 80.75" stroke="rgba(154, 140, 140, 1)" stroke-width="1.5"></path><path d="M1604.19 495.62L1604.19 495.62" stroke="rgba(154, 140, 140, 1)" stroke-width="1.5"></path><path d="M1604.19 495.62L1460.07 561.03" stroke="rgba(154, 140, 140, 1)" stroke-width="1.5"></path><path d="M1604.19 495.62L1561.83 666.4" stroke="rgba(154, 140, 140, 1)" stroke-width="1.5"></path><path d="M1561.83 666.4L1561.83 666.4" stroke="rgba(154, 140, 140, 1)" stroke-width="1.5"></path><circle r="5" cx="-61.03" cy="382.88" fill="rgba(154, 140, 140, 1)"></circle><circle r="5" cx="-107.95" cy="529.91" fill="rgba(154, 140, 140, 1)"></circle><circle r="5" cx="-53.92" cy="689.19" fill="rgba(154, 140, 140, 1)"></circle><circle r="5" cx="71.11" cy="401.84" fill="rgba(154, 140, 140, 1)"></circle><circle r="5" cx="51.27" cy="490.79" fill="rgba(154, 140, 140, 1)"></circle><circle r="5" cx="223.25" cy="366.97" fill="rgba(154, 140, 140, 1)"></circle><circle r="5" cx="261.68" cy="548.09" fill="rgba(154, 140, 140, 1)"></circle><circle r="5" cx="193.62" cy="652.23" fill="rgba(154, 140, 140, 1)"></circle><circle r="5" cx="360.2" cy="412.43" fill="rgba(154, 140, 140, 1)"></circle><circle r="5" cx="379.77" cy="533.23" fill="rgba(154, 140, 140, 1)"></circle><circle r="5" cx="382.35" cy="704.86" fill="rgba(154, 140, 140, 1)"></circle><circle r="5" cx="525.75" cy="372.28" fill="rgba(154, 140, 140, 1)"></circle><circle r="5" cx="548.72" cy="546.14" fill="rgba(154, 140, 140, 1)"></circle><circle r="5" cx="507.59" cy="674.14" fill="rgba(154, 140, 140, 1)"></circle><circle r="5" cx="687.93" cy="226.86" fill="rgba(154, 140, 140, 1)"></circle><circle r="5" cx="661.15" cy="401.81" fill="rgba(154, 140, 140, 1)"></circle><circle r="5" cx="682.7" cy="504.51" fill="rgba(154, 140, 140, 1)"></circle><circle r="5" cx="688.17" cy="644.12" fill="rgba(154, 140, 140, 1)"></circle><circle r="5" cx="844.47" cy="244.27" fill="rgba(154, 140, 140, 1)"></circle><circle r="5" cx="799.98" cy="387.19" fill="rgba(154, 140, 140, 1)"></circle><circle r="5" cx="824.07" cy="700.24" fill="rgba(154, 140, 140, 1)"></circle><circle r="5" cx="971.65" cy="-78.49" fill="rgba(154, 140, 140, 1)"></circle><circle r="5" cx="999.57" cy="111.2" fill="rgba(154, 140, 140, 1)"></circle><circle r="5" cx="953.6" cy="200.71" fill="rgba(154, 140, 140, 1)"></circle><circle r="5" cx="998.53" cy="338.05" fill="rgba(154, 140, 140, 1)"></circle><circle r="5" cx="974.41" cy="539.7" fill="rgba(154, 140, 140, 1)"></circle><circle r="5" cx="973.87" cy="663.33" fill="rgba(154, 140, 140, 1)"></circle><circle r="5" cx="1130.07" cy="-71.5" fill="rgba(154, 140, 140, 1)"></circle><circle r="5" cx="1147.95" cy="55.58" fill="rgba(154, 140, 140, 1)"></circle><circle r="5" cx="1097.5" cy="196.54" fill="rgba(154, 140, 140, 1)"></circle><circle r="5" cx="1147.71" cy="360.04" fill="rgba(154, 140, 140, 1)"></circle><circle r="5" cx="1098.21" cy="525.58" fill="rgba(154, 140, 140, 1)"></circle><circle r="5" cx="1118.41" cy="705.61" fill="rgba(154, 140, 140, 1)"></circle><circle r="5" cx="1271.77" cy="-71.36" fill="rgba(154, 140, 140, 1)"></circle><circle r="5" cx="1263.88" cy="110.8" fill="rgba(154, 140, 140, 1)"></circle><circle r="5" cx="1301.63" cy="205.71" fill="rgba(154, 140, 140, 1)"></circle><circle r="5" cx="1264.14" cy="392.14" fill="rgba(154, 140, 140, 1)"></circle><circle r="5" cx="1245.16" cy="544.17" fill="rgba(154, 140, 140, 1)"></circle><circle r="5" cx="1264.06" cy="669.74" fill="rgba(154, 140, 140, 1)"></circle><circle r="5" cx="1428.46" cy="-53.37" fill="rgba(154, 140, 140, 1)"></circle><circle r="5" cx="1410.22" cy="42.19" fill="rgba(154, 140, 140, 1)"></circle><circle r="5" cx="1433.14" cy="199.39" fill="rgba(154, 140, 140, 1)"></circle><circle r="5" cx="1389.66" cy="369.93" fill="rgba(154, 140, 140, 1)"></circle><circle r="5" cx="1460.07" cy="561.03" fill="rgba(154, 140, 140, 1)"></circle><circle r="5" cx="1448.62" cy="651.05" fill="rgba(154, 140, 140, 1)"></circle><circle r="5" cx="1585.57" cy="80.75" fill="rgba(154, 140, 140, 1)"></circle><circle r="5" cx="1598.04" cy="382.85" fill="rgba(154, 140, 140, 1)"></circle><circle r="5" cx="1604.19" cy="495.62" fill="rgba(154, 140, 140, 1)"></circle><circle r="5" cx="1561.83" cy="666.4" fill="rgba(154, 140, 140, 1)"></circle><path d="M407.21 534.71L407.21 534.71" stroke="hsl(0, 0%, 100%)" stroke-width="1.5"></path><path d="M407.21 534.71L508.68 509.5" stroke="hsl(0, 0%, 100%)" stroke-width="1.5"></path><path d="M407.21 534.71L493.65 408.89" stroke="hsl(0, 0%, 100%)" stroke-width="1.5"></path><path d="M407.21 534.71L345.86 691.37" stroke="hsl(0, 0%, 100%)" stroke-width="1.5"></path><path d="M407.21 534.71L490.63 696.93" stroke="hsl(0, 0%, 100%)" stroke-width="1.5"></path><path d="M407.21 534.71L250.08 655.06" stroke="hsl(0, 0%, 100%)" stroke-width="1.5"></path><path d="M407.21 534.71L194.01 501.66" stroke="hsl(0, 0%, 100%)" stroke-width="1.5"></path><path d="M988.36 657.39L988.36 657.39" stroke="hsl(0, 0%, 100%)" stroke-width="1.5"></path><path d="M988.36 657.39L846.12 681.92" stroke="hsl(0, 0%, 100%)" stroke-width="1.5"></path><path d="M988.36 657.39L1160.99 655.39" stroke="hsl(0, 0%, 100%)" stroke-width="1.5"></path><path d="M988.36 657.39L845.19 548.72" stroke="hsl(0, 0%, 100%)" stroke-width="1.5"></path><path d="M988.36 657.39L1151.67 520.49" stroke="hsl(0, 0%, 100%)" stroke-width="1.5"></path><path d="M988.36 657.39L701.64 702.44" stroke="hsl(0, 0%, 100%)" stroke-width="1.5"></path><path d="M988.36 657.39L956.17 362.75" stroke="hsl(0, 0%, 100%)" stroke-width="1.5"></path><path d="M1160.99 655.39L1160.99 655.39" stroke="hsl(0, 0%, 100%)" stroke-width="1.5"></path><path d="M1160.99 655.39L1151.67 520.49" stroke="hsl(0, 0%, 100%)" stroke-width="1.5"></path><path d="M1160.99 655.39L1297.74 701.56" stroke="hsl(0, 0%, 100%)" stroke-width="1.5"></path><path d="M1278.35 -94.2L1278.35 -94.2" stroke="hsl(0, 0%, 100%)" stroke-width="1.5"></path><path d="M1278.35 -94.2L1153.72 -45.37" stroke="hsl(0, 0%, 100%)" stroke-width="1.5"></path><path d="M1278.35 -94.2L1451.25 -99.69" stroke="hsl(0, 0%, 100%)" stroke-width="1.5"></path><path d="M1278.35 -94.2L1444.04 50.57" stroke="hsl(0, 0%, 100%)" stroke-width="1.5"></path><path d="M1278.35 -94.2L1244.1 188.76" stroke="hsl(0, 0%, 100%)" stroke-width="1.5"></path><path d="M1278.35 -94.2L1570.85 -60.89" stroke="hsl(0, 0%, 100%)" stroke-width="1.5"></path><path d="M1278.35 -94.2L1416.21 188.69" stroke="hsl(0, 0%, 100%)" stroke-width="1.5"></path><path d="M1451.25 -99.69L1451.25 -99.69" stroke="hsl(0, 0%, 100%)" stroke-width="1.5"></path><path d="M1451.25 -99.69L1570.85 -60.89" stroke="hsl(0, 0%, 100%)" stroke-width="1.5"></path><path d="M1451.25 -99.69L1444.04 50.57" stroke="hsl(0, 0%, 100%)" stroke-width="1.5"></path><path d="M1451.25 -99.69L1578.4 62.08" stroke="hsl(0, 0%, 100%)" stroke-width="1.5"></path><path d="M1451.25 -99.69L1416.21 188.69" stroke="hsl(0, 0%, 100%)" stroke-width="1.5"></path><path d="M1395.71 388.44L1395.71 388.44" stroke="hsl(0, 0%, 100%)" stroke-width="1.5"></path><path d="M1395.71 388.44L1309.31 373.83" stroke="hsl(0, 0%, 100%)" stroke-width="1.5"></path><path d="M1395.71 388.44L1426.61 513.32" stroke="hsl(0, 0%, 100%)" stroke-width="1.5"></path><path d="M1395.71 388.44L1255.75 504.99" stroke="hsl(0, 0%, 100%)" stroke-width="1.5"></path><path d="M1395.71 388.44L1416.21 188.69" stroke="hsl(0, 0%, 100%)" stroke-width="1.5"></path><path d="M1395.71 388.44L1609.23 394.92" stroke="hsl(0, 0%, 100%)" stroke-width="1.5"></path><path d="M1395.71 388.44L1586.61 511.73" stroke="hsl(0, 0%, 100%)" stroke-width="1.5"></path><path d="M1570.85 -60.89L1570.85 -60.89" stroke="hsl(0, 0%, 100%)" stroke-width="1.5"></path><path d="M1570.85 -60.89L1578.4 62.08" stroke="hsl(0, 0%, 100%)" stroke-width="1.5"></path><path d="M1609.23 394.92L1609.23 394.92" stroke="hsl(0, 0%, 100%)" stroke-width="1.5"></path><path d="M1609.23 394.92L1586.61 511.73" stroke="hsl(0, 0%, 100%)" stroke-width="1.5"></path><path d="M1609.23 394.92L1580.23 235.54" stroke="hsl(0, 0%, 100%)" stroke-width="1.5"></path><path d="M-85.27 692.09L-85.27 692.09" stroke="hsl(0, 0%, 100%)" stroke-width="1.5"></path><path d="M-85.27 692.09L86.11 647.56" stroke="hsl(0, 0%, 100%)" stroke-width="1.5"></path><path d="M-85.27 692.09L97.81 561.03" stroke="hsl(0, 0%, 100%)" stroke-width="1.5"></path><path d="M-85.27 692.09L250.08 655.06" stroke="hsl(0, 0%, 100%)" stroke-width="1.5"></path><path d="M-85.27 692.09L194.01 501.66" stroke="hsl(0, 0%, 100%)" stroke-width="1.5"></path><path d="M-85.27 692.09L345.86 691.37" stroke="hsl(0, 0%, 100%)" stroke-width="1.5"></path><path d="M97.81 561.03L97.81 561.03" stroke="hsl(0, 0%, 100%)" stroke-width="1.5"></path><path d="M97.81 561.03L86.11 647.56" stroke="hsl(0, 0%, 100%)" stroke-width="1.5"></path><path d="M97.81 561.03L194.01 501.66" stroke="hsl(0, 0%, 100%)" stroke-width="1.5"></path><path d="M97.81 561.03L250.08 655.06" stroke="hsl(0, 0%, 100%)" stroke-width="1.5"></path><path d="M97.81 561.03L345.86 691.37" stroke="hsl(0, 0%, 100%)" stroke-width="1.5"></path><path d="M97.81 561.03L407.21 534.71" stroke="hsl(0, 0%, 100%)" stroke-width="1.5"></path><path d="M86.11 647.56L86.11 647.56" stroke="hsl(0, 0%, 100%)" stroke-width="1.5"></path><path d="M86.11 647.56L250.08 655.06" stroke="hsl(0, 0%, 100%)" stroke-width="1.5"></path><path d="M86.11 647.56L194.01 501.66" stroke="hsl(0, 0%, 100%)" stroke-width="1.5"></path><path d="M194.01 501.66L194.01 501.66" stroke="hsl(0, 0%, 100%)" stroke-width="1.5"></path><path d="M194.01 501.66L250.08 655.06" stroke="hsl(0, 0%, 100%)" stroke-width="1.5"></path><path d="M250.08 655.06L250.08 655.06" stroke="hsl(0, 0%, 100%)" stroke-width="1.5"></path><path d="M250.08 655.06L345.86 691.37" stroke="hsl(0, 0%, 100%)" stroke-width="1.5"></path><path d="M345.86 691.37L345.86 691.37" stroke="hsl(0, 0%, 100%)" stroke-width="1.5"></path><path d="M345.86 691.37L490.63 696.93" stroke="hsl(0, 0%, 100%)" stroke-width="1.5"></path><path d="M493.65 408.89L493.65 408.89" stroke="hsl(0, 0%, 100%)" stroke-width="1.5"></path><path d="M493.65 408.89L508.68 509.5" stroke="hsl(0, 0%, 100%)" stroke-width="1.5"></path><path d="M508.68 509.5L508.68 509.5" stroke="hsl(0, 0%, 100%)" stroke-width="1.5"></path><path d="M490.63 696.93L490.63 696.93" stroke="hsl(0, 0%, 100%)" stroke-width="1.5"></path><path d="M490.63 696.93L508.68 509.5" stroke="hsl(0, 0%, 100%)" stroke-width="1.5"></path><path d="M490.63 696.93L701.64 702.44" stroke="hsl(0, 0%, 100%)" stroke-width="1.5"></path><path d="M490.63 696.93L250.08 655.06" stroke="hsl(0, 0%, 100%)" stroke-width="1.5"></path><path d="M490.63 696.93L651.85 497.45" stroke="hsl(0, 0%, 100%)" stroke-width="1.5"></path><path d="M651.85 497.45L651.85 497.45" stroke="hsl(0, 0%, 100%)" stroke-width="1.5"></path><path d="M651.85 497.45L508.68 509.5" stroke="hsl(0, 0%, 100%)" stroke-width="1.5"></path><path d="M651.85 497.45L493.65 408.89" stroke="hsl(0, 0%, 100%)" stroke-width="1.5"></path><path d="M651.85 497.45L845.19 548.72" stroke="hsl(0, 0%, 100%)" stroke-width="1.5"></path><path d="M651.85 497.45L701.64 702.44" stroke="hsl(0, 0%, 100%)" stroke-width="1.5"></path><path d="M651.85 497.45L830.36 380.73" stroke="hsl(0, 0%, 100%)" stroke-width="1.5"></path><path d="M701.64 702.44L701.64 702.44" stroke="hsl(0, 0%, 100%)" stroke-width="1.5"></path><path d="M701.64 702.44L846.12 681.92" stroke="hsl(0, 0%, 100%)" stroke-width="1.5"></path><path d="M701.64 702.44L845.19 548.72" stroke="hsl(0, 0%, 100%)" stroke-width="1.5"></path><path d="M830.36 380.73L830.36 380.73" stroke="hsl(0, 0%, 100%)" stroke-width="1.5"></path><path d="M830.36 380.73L956.17 362.75" stroke="hsl(0, 0%, 100%)" stroke-width="1.5"></path><path d="M830.36 380.73L845.19 548.72" stroke="hsl(0, 0%, 100%)" stroke-width="1.5"></path><path d="M845.19 548.72L845.19 548.72" stroke="hsl(0, 0%, 100%)" stroke-width="1.5"></path><path d="M845.19 548.72L846.12 681.92" stroke="hsl(0, 0%, 100%)" stroke-width="1.5"></path><path d="M846.12 681.92L846.12 681.92" stroke="hsl(0, 0%, 100%)" stroke-width="1.5"></path><path d="M846.12 681.92L651.85 497.45" stroke="hsl(0, 0%, 100%)" stroke-width="1.5"></path><path d="M956.17 362.75L956.17 362.75" stroke="hsl(0, 0%, 100%)" stroke-width="1.5"></path><path d="M956.17 362.75L1115.89 340.58" stroke="hsl(0, 0%, 100%)" stroke-width="1.5"></path><path d="M1153.72 -45.37L1153.72 -45.37" stroke="hsl(0, 0%, 100%)" stroke-width="1.5"></path><path d="M1153.72 -45.37L1244.1 188.76" stroke="hsl(0, 0%, 100%)" stroke-width="1.5"></path><path d="M1153.72 -45.37L1140.21 213.81" stroke="hsl(0, 0%, 100%)" stroke-width="1.5"></path><path d="M1153.72 -45.37L1451.25 -99.69" stroke="hsl(0, 0%, 100%)" stroke-width="1.5"></path><path d="M1140.21 213.81L1140.21 213.81" stroke="hsl(0, 0%, 100%)" stroke-width="1.5"></path><path d="M1140.21 213.81L1244.1 188.76" stroke="hsl(0, 0%, 100%)" stroke-width="1.5"></path><path d="M1140.21 213.81L1115.89 340.58" stroke="hsl(0, 0%, 100%)" stroke-width="1.5"></path><path d="M1140.21 213.81L1309.31 373.83" stroke="hsl(0, 0%, 100%)" stroke-width="1.5"></path><path d="M1140.21 213.81L956.17 362.75" stroke="hsl(0, 0%, 100%)" stroke-width="1.5"></path><path d="M1115.89 340.58L1115.89 340.58" stroke="hsl(0, 0%, 100%)" stroke-width="1.5"></path><path d="M1115.89 340.58L1151.67 520.49" stroke="hsl(0, 0%, 100%)" stroke-width="1.5"></path><path d="M1151.67 520.49L1151.67 520.49" stroke="hsl(0, 0%, 100%)" stroke-width="1.5"></path><path d="M1151.67 520.49L1255.75 504.99" stroke="hsl(0, 0%, 100%)" stroke-width="1.5"></path><path d="M1244.1 188.76L1244.1 188.76" stroke="hsl(0, 0%, 100%)" stroke-width="1.5"></path><path d="M1244.1 188.76L1416.21 188.69" stroke="hsl(0, 0%, 100%)" stroke-width="1.5"></path><path d="M1244.1 188.76L1309.31 373.83" stroke="hsl(0, 0%, 100%)" stroke-width="1.5"></path><path d="M1244.1 188.76L1115.89 340.58" stroke="hsl(0, 0%, 100%)" stroke-width="1.5"></path><path d="M1309.31 373.83L1309.31 373.83" stroke="hsl(0, 0%, 100%)" stroke-width="1.5"></path><path d="M1309.31 373.83L1255.75 504.99" stroke="hsl(0, 0%, 100%)" stroke-width="1.5"></path><path d="M1309.31 373.83L1426.61 513.32" stroke="hsl(0, 0%, 100%)" stroke-width="1.5"></path><path d="M1255.75 504.99L1255.75 504.99" stroke="hsl(0, 0%, 100%)" stroke-width="1.5"></path><path d="M1297.74 701.56L1297.74 701.56" stroke="hsl(0, 0%, 100%)" stroke-width="1.5"></path><path d="M1297.74 701.56L1255.75 504.99" stroke="hsl(0, 0%, 100%)" stroke-width="1.5"></path><path d="M1297.74 701.56L1426.61 513.32" stroke="hsl(0, 0%, 100%)" stroke-width="1.5"></path><path d="M1444.04 50.57L1444.04 50.57" stroke="hsl(0, 0%, 100%)" stroke-width="1.5"></path><path d="M1444.04 50.57L1578.4 62.08" stroke="hsl(0, 0%, 100%)" stroke-width="1.5"></path><path d="M1444.04 50.57L1416.21 188.69" stroke="hsl(0, 0%, 100%)" stroke-width="1.5"></path><path d="M1444.04 50.57L1570.85 -60.89" stroke="hsl(0, 0%, 100%)" stroke-width="1.5"></path><path d="M1416.21 188.69L1416.21 188.69" stroke="hsl(0, 0%, 100%)" stroke-width="1.5"></path><path d="M1416.21 188.69L1580.23 235.54" stroke="hsl(0, 0%, 100%)" stroke-width="1.5"></path><path d="M1426.61 513.32L1426.61 513.32" stroke="hsl(0, 0%, 100%)" stroke-width="1.5"></path><path d="M1426.61 513.32L1586.61 511.73" stroke="hsl(0, 0%, 100%)" stroke-width="1.5"></path><path d="M1578.4 62.08L1578.4 62.08" stroke="hsl(0, 0%, 100%)" stroke-width="1.5"></path><path d="M1578.4 62.08L1580.23 235.54" stroke="hsl(0, 0%, 100%)" stroke-width="1.5"></path><path d="M1580.23 235.54L1580.23 235.54" stroke="hsl(0, 0%, 100%)" stroke-width="1.5"></path><path d="M1580.23 235.54L1444.04 50.57" stroke="hsl(0, 0%, 100%)" stroke-width="1.5"></path><path d="M1580.23 235.54L1395.71 388.44" stroke="hsl(0, 0%, 100%)" stroke-width="1.5"></path><path d="M1586.61 511.73L1586.61 511.73" stroke="hsl(0, 0%, 100%)" stroke-width="1.5"></path><path d="M1586.61 511.73L1585.35 658.57" stroke="hsl(0, 0%, 100%)" stroke-width="1.5"></path><path d="M1585.35 658.57L1585.35 658.57" stroke="hsl(0, 0%, 100%)" stroke-width="1.5"></path><path d="M1585.35 658.57L1426.61 513.32" stroke="hsl(0, 0%, 100%)" stroke-width="1.5"></path><path d="M1585.35 658.57L1609.23 394.92" stroke="hsl(0, 0%, 100%)" stroke-width="1.5"></path><path d="M1585.35 658.57L1297.74 701.56" stroke="hsl(0, 0%, 100%)" stroke-width="1.5"></path><circle r="25" cx="407.21" cy="534.71" fill="url(#SvgjsRadialGradient1100)"></circle><circle r="25" cx="988.36" cy="657.39" fill="url(#SvgjsRadialGradient1100)"></circle><circle r="25" cx="1160.99" cy="655.39" fill="url(#SvgjsRadialGradient1100)"></circle><circle r="25" cx="1278.35" cy="-94.2" fill="url(#SvgjsRadialGradient1100)"></circle><circle r="25" cx="1451.25" cy="-99.69" fill="url(#SvgjsRadialGradient1100)"></circle><circle r="25" cx="1395.71" cy="388.44" fill="url(#SvgjsRadialGradient1100)"></circle><circle r="25" cx="1570.85" cy="-60.89" fill="url(#SvgjsRadialGradient1100)"></circle><circle r="25" cx="1609.23" cy="394.92" fill="url(#SvgjsRadialGradient1100)"></circle><circle r="5" cx="-85.27" cy="692.09" fill="#ffffff"></circle><circle r="5" cx="97.81" cy="561.03" fill="#ffffff"></circle><circle r="5" cx="86.11" cy="647.56" fill="#ffffff"></circle><circle r="5" cx="194.01" cy="501.66" fill="#ffffff"></circle><circle r="5" cx="250.08" cy="655.06" fill="#ffffff"></circle><circle r="5" cx="345.86" cy="691.37" fill="#ffffff"></circle><circle r="5" cx="493.65" cy="408.89" fill="#ffffff"></circle><circle r="5" cx="508.68" cy="509.5" fill="#ffffff"></circle><circle r="5" cx="490.63" cy="696.93" fill="#ffffff"></circle><circle r="5" cx="651.85" cy="497.45" fill="#ffffff"></circle><circle r="5" cx="701.64" cy="702.44" fill="#ffffff"></circle><circle r="5" cx="830.36" cy="380.73" fill="#ffffff"></circle><circle r="5" cx="845.19" cy="548.72" fill="#ffffff"></circle><circle r="5" cx="846.12" cy="681.92" fill="#ffffff"></circle><circle r="5" cx="956.17" cy="362.75" fill="#ffffff"></circle><circle r="5" cx="1153.72" cy="-45.37" fill="#ffffff"></circle><circle r="5" cx="1140.21" cy="213.81" fill="#ffffff"></circle><circle r="5" cx="1115.89" cy="340.58" fill="#ffffff"></circle><circle r="5" cx="1151.67" cy="520.49" fill="#ffffff"></circle><circle r="5" cx="1244.1" cy="188.76" fill="#ffffff"></circle><circle r="5" cx="1309.31" cy="373.83" fill="#ffffff"></circle><circle r="5" cx="1255.75" cy="504.99" fill="#ffffff"></circle><circle r="5" cx="1297.74" cy="701.56" fill="#ffffff"></circle><circle r="5" cx="1444.04" cy="50.57" fill="#ffffff"></circle><circle r="5" cx="1416.21" cy="188.69" fill="#ffffff"></circle><circle r="5" cx="1426.61" cy="513.32" fill="#ffffff"></circle><circle r="5" cx="1578.4" cy="62.08" fill="#ffffff"></circle><circle r="5" cx="1580.23" cy="235.54" fill="#ffffff"></circle><circle r="5" cx="1586.61" cy="511.73" fill="#ffffff"></circle><circle r="5" cx="1585.35" cy="658.57" fill="#ffffff"></circle></g><defs><mask id="SvgjsMask1099"><rect width="1440" height="560" fill="#ffffff"></rect></mask><radialGradient id="SvgjsRadialGradient1100"><stop stop-color="#ffffff" offset="0.1"></stop><stop stop-color="rgba(255, 255, 255, 1)" offset="0.2"></stop><stop stop-color="rgba(255, 255, 255, 0)" offset="1"></stop></radialGradient></defs></svg>