<?xml version="1.0" standalone="no"?>
<!DOCTYPE svg PUBLIC "-//W3C//DTD SVG 20010904//EN"
 "http://www.w3.org/TR/2001/REC-SVG-20010904/DTD/svg10.dtd">
<svg version="1.0" xmlns="http://www.w3.org/2000/svg"
 width="1600.000000pt" height="1600.000000pt" viewBox="0 0 1600.000000 1600.000000"
 preserveAspectRatio="xMidYMid meet">
<metadata>
Created by potrace 1.16, written by Peter Selinger 2001-2019
</metadata>
<g transform="translate(0.000000,1600.000000) scale(0.100000,-0.100000)"
fill="white" stroke="none">
<path d="M7575 15994 c-979 -60 -1853 -263 -2720 -631 -224 -96 -619 -292
-830 -413 -1722 -990 -3009 -2566 -3629 -4448 -194 -587 -309 -1153 -373
-1832 -14 -147 -17 -286 -17 -670 0 -507 6 -630 55 -1015 160 -1278 636 -2512
1377 -3570 996 -1422 2413 -2476 4060 -3019 587 -194 1153 -309 1832 -373 147
-14 286 -17 670 -17 507 0 630 6 1015 55 1278 160 2512 636 3570 1377 1422
996 2476 2413 3019 4060 194 587 309 1153 373 1832 14 147 17 286 17 670 0
507 -6 630 -55 1015 -160 1278 -636 2512 -1377 3570 -996 1422 -2413 2476
-4060 3019 -584 193 -1159 310 -1822 372 -165 15 -941 28 -1105 18z m261 -201
c-8 -16 -224 -390 -480 -833 l-465 -805 -152 -32 c-574 -121 -1050 -288 -1564
-548 -1765 -892 -3001 -2566 -3335 -4516 -173 -1013 -90 -2095 233 -3050 l43
-125 -480 -832 c-358 -620 -483 -828 -492 -821 -19 15 -265 516 -335 679 -315
742 -513 1507 -593 2290 -53 514 -53 1086 0 1600 209 2053 1222 3933 2832
5257 1004 826 2245 1403 3525 1638 386 70 847 120 1150 124 l128 1 -15 -27z
m664 17 c547 -38 1060 -124 1562 -261 1561 -426 2954 -1331 3995 -2597 375
-455 733 -1016 991 -1551 442 -919 689 -1860 763 -2911 24 -348 13 -903 -27
-1290 -80 -783 -278 -1548 -593 -2290 -70 -163 -316 -664 -335 -679 -9 -7
-134 201 -492 821 l-480 832 43 125 c425 1256 428 2688 8 3956 -519 1566
-1639 2866 -3110 3610 -514 260 -990 427 -1564 548 l-152 32 -465 805 c-256
443 -472 817 -480 833 l-15 27 103 0 c57 0 168 -5 248 -10z m-570 -873 l0
-684 -229 -11 c-126 -7 -309 -21 -406 -33 -98 -11 -181 -19 -186 -17 -8 3 809
1428 818 1428 1 0 3 -307 3 -683z m561 -34 c225 -389 405 -709 400 -711 -5 -2
-88 6 -186 17 -97 12 -280 26 -406 33 l-229 11 0 685 c0 377 3 683 6 680 3 -4
190 -325 415 -715z m-633 -749 c-3 -3 -268 -157 -590 -342 l-584 -337 173 299
c95 165 175 301 177 303 15 15 434 61 661 72 88 4 162 9 164 9 2 1 2 0 -1 -4z
m767 -29 c157 -17 335 -41 341 -48 2 -2 82 -138 177 -303 l173 -299 -584 337
c-322 185 -586 338 -587 340 -7 7 342 -13 480 -27z m-699 -423 c-3 -2 -45 -11
-93 -18 -585 -88 -977 -658 -857 -1245 43 -212 143 -389 309 -547 154 -147
334 -236 541 -270 l104 -17 0 -227 0 -228 -1291 0 c-1114 0 -1290 2 -1286 14
11 27 1250 2171 1271 2199 13 17 263 167 661 397 l640 369 3 -211 c1 -116 0
-213 -2 -216z m822 38 c378 -218 620 -364 631 -379 22 -32 1260 -2177 1268
-2197 4 -12 -172 -14 -1286 -14 l-1291 0 0 228 0 227 104 17 c207 34 387 123
541 270 166 158 266 335 309 547 82 400 -71 807 -396 1051 -128 97 -296 169
-443 191 -38 6 -80 12 -92 15 l-23 4 0 216 0 216 33 -19 c17 -10 308 -178 645
-373z m-1930 291 c-1 -4 -95 -168 -207 -363 l-205 -354 -1774 -1025 c-976
-563 -1801 -1039 -1834 -1058 l-59 -34 37 59 c87 137 203 307 283 414 882
1182 2143 2006 3576 2334 159 37 189 41 183 27z m2542 -26 c1327 -300 2533
-1046 3397 -2100 167 -204 315 -409 467 -649 l37 -59 -59 34 c-33 19 -858 495
-1834 1058 l-1774 1025 -205 354 c-112 195 -205 359 -207 363 -6 14 13 11 178
-26z m-1122 -474 c322 -94 561 -340 648 -667 28 -104 25 -331 -4 -439 -112
-406 -467 -680 -882 -680 -353 0 -658 191 -815 510 -70 142 -88 223 -89 395 0
110 4 162 18 214 93 350 356 603 706 681 96 22 322 14 418 -14z m-1900 -335
c-7 -12 -276 -478 -597 -1035 l-585 -1011 -1195 0 -1196 0 355 205 c195 112
1001 578 1790 1034 789 456 1436 830 1438 830 1 1 -3 -10 -10 -23z m5107
-1013 c963 -555 1759 -1015 1770 -1021 15 -9 -279 -11 -1176 -12 l-1195 0
-585 1011 c-692 1199 -618 1067 -588 1048 13 -9 812 -470 1774 -1026z m-6345
-1127 c0 -6 -1181 -2050 -1189 -2059 -6 -5 -1065 1812 -1198 2056 -2 4 534 7
1191 7 658 0 1196 -2 1196 -4z m2830 -61 l0 -65 -68 0 c-94 0 -303 -26 -447
-55 -1155 -234 -2056 -1135 -2290 -2290 -39 -193 -55 -361 -55 -585 0 -224 16
-392 55 -585 50 -248 139 -508 245 -720 l50 -100 -22 -17 c-26 -20 -77 -43
-82 -37 -1 2 -298 516 -659 1142 -589 1021 -656 1141 -645 1160 15 28 1234
2142 1260 2185 l20 32 1319 0 1319 0 0 -65z m3337 -900 c305 -528 595 -1030
644 -1116 l90 -156 -657 -1139 c-362 -627 -659 -1141 -660 -1143 -5 -6 -56 17
-82 37 l-22 17 50 100 c106 212 195 472 245 720 39 193 55 361 55 585 0 304
-34 547 -115 829 -35 124 -106 315 -144 390 -26 51 -26 56 0 30 15 -15 29 -19
47 -15 15 3 53 11 85 18 31 7 57 16 57 21 0 4 -11 19 -25 32 -17 18 -35 25
-64 25 -22 0 -42 -4 -45 -8 -3 -5 -19 -7 -35 -4 -24 3 -32 0 -39 -17 -6 -17
-16 -4 -62 81 -422 780 -1146 1319 -2005 1493 -144 29 -353 55 -447 55 l-68 0
0 65 0 65 1321 -2 1321 -3 555 -960z m2020 958 c-148 -270 -1192 -2062 -1198
-2056 -8 9 -1189 2053 -1189 2059 0 2 538 4 1196 4 657 0 1193 -3 1191 -7z
m-10033 -1131 l596 -1034 -586 -1016 c-323 -560 -593 -1026 -600 -1037 -12
-16 -14 309 -14 2054 0 1141 2 2072 4 2070 2 -2 272 -469 600 -1037z m10094
-2068 l-3 -1036 -598 1035 -597 1035 597 1035 598 1035 3 -1034 c1 -569 1
-1500 0 -2070z m-10955 -1492 c-115 -199 -211 -362 -214 -362 -8 0 -111 341
-149 493 -309 1227 -231 2533 220 3707 77 202 135 332 243 550 l102 204 3
-2116 2 -2115 -207 -361z m11159 4298 c623 -1308 769 -2770 418 -4167 -38
-152 -141 -493 -149 -493 -3 0 -99 163 -213 362 l-208 360 0 2117 0 2116 46
-85 c26 -47 73 -141 106 -210z m-5622 -150 l0 -330 -59 0 c-33 0 -95 -5 -138
-10 -746 -100 -1368 -542 -1694 -1205 -151 -308 -221 -613 -221 -965 0 -96 5
-213 11 -260 32 -240 98 -470 190 -664 28 -60 50 -110 49 -111 -2 -2 -129 -75
-283 -164 l-280 -162 -62 128 c-121 247 -209 532 -255 824 -19 122 -22 184
-22 409 0 225 3 287 22 409 49 311 139 594 276 866 372 737 1038 1273 1833
1476 181 46 423 83 576 87 l57 2 0 -330z m484 299 c1124 -162 2054 -1000 2337
-2105 67 -264 83 -400 83 -704 0 -225 -3 -287 -22 -409 -46 -292 -134 -577
-255 -824 l-62 -128 -280 162 c-154 89 -281 162 -283 164 -1 1 21 51 49 111
92 194 158 424 190 664 6 47 11 164 11 260 0 352 -70 657 -221 965 -326 663
-948 1105 -1694 1205 -43 5 -105 10 -138 10 l-59 0 0 331 0 332 103 -7 c56 -4
165 -16 241 -27z m-486 -1746 l-3 -1026 -880 -508 c-484 -280 -884 -507 -890
-506 -16 5 -100 200 -143 332 -133 403 -137 850 -12 1257 181 585 627 1079
1185 1313 224 94 504 160 693 164 l52 1 -2 -1027z m332 1012 c475 -64 881
-264 1216 -599 399 -398 613 -913 614 -1471 0 -237 -31 -435 -102 -650 -43
-132 -127 -327 -143 -332 -5 -1 -406 226 -890 506 l-880 508 -3 1026 -2 1027
42 0 c24 0 90 -7 148 -15z m-3680 -2450 c342 -594 630 -1093 640 -1110 l18
-30 -196 -113 -197 -113 -30 38 c-55 71 -150 165 -215 214 -90 69 -246 144
-365 176 -89 24 -118 27 -265 27 -146 0 -176 -3 -261 -26 -333 -90 -585 -314
-712 -633 -48 -122 -70 -243 -69 -390 0 -139 19 -240 67 -368 l32 -88 -66 -38
c-36 -21 -121 -70 -188 -109 l-123 -71 0 748 0 748 638 1104 c350 607 641
1110 646 1117 4 8 12 10 16 5 4 -4 287 -494 630 -1088z m8130 -29 l640 -1109
0 -748 0 -748 -122 71 c-68 39 -153 88 -189 109 l-66 38 32 88 c48 128 67 229
67 368 1 147 -21 268 -69 390 -127 319 -379 543 -712 633 -85 23 -115 26 -261
26 -146 0 -176 -3 -262 -27 -232 -62 -430 -194 -583 -390 l-30 -38 -197 113
c-185 106 -196 114 -184 133 7 11 297 514 646 1118 348 604 637 1094 641 1090
5 -5 297 -508 649 -1117z m-3814 -193 l882 -510 -60 -84 c-239 -334 -548 -585
-903 -734 -271 -114 -523 -165 -815 -165 -690 0 -1307 323 -1718 899 l-60 84
887 513 c487 282 891 511 896 509 6 -2 407 -232 891 -512z m-2684 -661 c260
-374 661 -672 1098 -816 236 -77 432 -108 690 -108 258 0 454 31 690 108 437
144 839 442 1098 816 37 54 73 96 79 95 20 -3 552 -311 553 -319 0 -13 -130
-201 -204 -293 -386 -481 -918 -824 -1512 -976 -264 -67 -400 -83 -704 -83
-225 0 -287 3 -409 22 -723 113 -1357 477 -1807 1037 -74 92 -204 280 -204
293 1 8 541 321 555 321 6 0 40 -44 77 -97z m-1982 -197 c288 -93 506 -302
601 -578 120 -349 11 -747 -271 -984 -368 -309 -894 -289 -1230 48 -117 116
-201 266 -246 434 -14 52 -18 106 -18 210 0 150 14 224 70 358 89 213 300 413
522 494 122 45 176 53 337 49 131 -3 161 -7 235 -31z m8070 -3 c395 -130 657
-504 637 -907 -7 -124 -25 -205 -72 -317 -154 -364 -544 -595 -932 -549 -581
69 -952 650 -764 1198 105 305 370 535 692 603 24 5 112 8 194 6 137 -3 158
-6 245 -34z m-6773 -125 c18 -30 72 -107 121 -173 489 -652 1206 -1064 2018
-1159 168 -20 500 -20 668 0 858 100 1615 559 2098 1271 30 44 59 88 65 98 9
17 13 16 61 -11 29 -15 51 -31 49 -34 -1 -3 -299 -519 -662 -1147 l-659 -1142
-1286 0 -1286 0 -454 788 c-263 455 -454 795 -452 807 1 12 -6 24 -18 30 -23
11 -406 668 -393 672 4 2 26 14 48 28 22 13 42 25 45 25 3 0 20 -24 37 -53z
m-2929 -1034 l-3 -337 -102 204 c-97 196 -168 354 -218 486 l-24 60 172 298
172 297 3 -335 c1 -185 1 -488 0 -673z m10987 697 c87 -151 158 -282 158 -291
-4 -44 -196 -473 -291 -649 l-52 -95 0 675 c0 566 2 671 13 655 8 -11 85 -144
172 -295z m-7628 -841 l643 -1114 -1285 -3 -1285 -2 -643 371 c-353 204 -646
374 -650 378 -4 5 74 56 175 114 l183 106 30 -37 c151 -187 327 -311 530 -375
230 -72 493 -61 715 29 170 69 354 216 459 369 199 288 242 643 118 974 l-33
89 190 110 c105 61 195 110 200 109 5 -2 299 -505 653 -1118z m4937 1010 l192
-111 -33 -89 c-61 -162 -83 -330 -64 -484 32 -266 135 -471 325 -653 189 -179
405 -269 669 -280 201 -8 357 26 529 115 136 70 251 166 363 305 l30 37 183
-106 c101 -58 179 -109 175 -114 -4 -4 -297 -174 -650 -378 l-643 -371 -1285
2 -1285 3 638 1105 c722 1251 651 1130 659 1130 3 0 92 -50 197 -111z m-8645
-702 c30 -72 110 -241 177 -374 l121 -241 -586 -338 c-322 -185 -590 -339
-594 -342 -12 -6 -33 -43 418 736 219 381 402 692 405 692 3 0 30 -60 59 -133z
m11966 -559 c451 -779 430 -742 418 -736 -4 3 -272 157 -594 342 l-586 338
121 241 c67 133 147 302 177 374 29 73 56 133 59 133 3 0 186 -311 405 -692z
m-11566 -221 c46 -81 249 -383 345 -511 53 -71 95 -131 93 -133 -2 -2 -376 -2
-832 -1 l-828 3 589 341 c324 188 594 342 599 343 6 0 21 -18 34 -42z m11336
-302 l588 -340 -828 -3 c-455 -1 -830 -1 -832 1 -2 2 40 62 93 133 96 129 300
431 345 512 13 23 29 41 35 40 5 -2 275 -156 599 -343z m-10651 -6 l580 -334
-345 -3 -344 -3 -28 33 c-109 127 -483 663 -450 645 4 -2 269 -154 587 -338z
m9889 284 c-129 -204 -330 -486 -420 -591 l-28 -33 -344 3 -345 3 585 337
c321 186 585 338 586 338 2 0 -14 -26 -34 -57z m-9963 -820 c276 -321 637
-659 975 -913 904 -680 1949 -1096 3060 -1219 1779 -198 3518 352 4854 1533
151 134 391 373 520 519 l103 117 965 0 965 0 -23 -38 c-131 -219 -435 -647
-622 -874 -324 -394 -711 -781 -1105 -1105 -1172 -964 -2633 -1572 -4152
-1727 -514 -53 -1086 -53 -1600 0 -2053 209 -3933 1222 -5257 2832 -187 227
-491 655 -622 875 l-23 37 965 0 965 0 32 -37z m2762 -1015 c1003 -578 1826
-1054 1830 -1057 17 -14 -397 13 -612 40 -1296 163 -2477 716 -3441 1611 -122
114 -345 343 -414 426 l-27 32 421 0 421 0 1822 -1052z m1258 40 c321 -557
590 -1023 598 -1036 12 -18 -14 -6 -104 46 -65 38 -866 500 -1779 1027 -913
527 -1664 962 -1669 966 -6 5 507 9 1180 9 l1189 0 585 -1012z m1893 978 c-43
-82 -1169 -2026 -1173 -2026 -4 0 -1130 1944 -1173 2026 l-17 34 1190 0 1190
0 -17 -34z m2501 25 c-5 -4 -769 -447 -1699 -984 -929 -536 -1730 -998 -1779
-1026 -71 -41 -86 -47 -74 -29 8 13 277 479 598 1036 l585 1012 1189 0 c674 0
1186 -4 1180 -9z m941 -23 c-133 -162 -481 -497 -715 -689 -903 -740 -1979
-1202 -3140 -1348 -189 -24 -627 -54 -615 -43 1 2 823 477 1826 1057 l1824
1054 423 0 424 1 -27 -32z"/>
<path d="M6283 14408 c-31 -35 -34 -52 -27 -170 6 -92 10 -108 23 -106 12 3
16 16 16 60 0 41 5 62 18 75 16 16 17 15 17 -34 0 -85 14 -101 56 -62 19 18
25 19 43 8 17 -12 24 -10 47 7 15 11 32 27 38 37 17 27 -2 32 -29 7 -22 -21
-25 -21 -31 -6 -5 12 3 26 25 46 31 29 42 72 20 85 -36 23 -89 -33 -89 -95 0
-16 -9 -39 -20 -50 -19 -19 -19 -19 -22 47 -3 76 -15 87 -53 49 l-25 -25 0 53
c0 51 1 54 30 60 18 3 30 12 30 21 0 23 -44 18 -67 -7z"/>
<path d="M6010 14222 c-27 -22 -39 -106 -21 -141 21 -37 83 -26 106 20 46 87
-17 176 -85 121z"/>
<path d="M5554 14057 c-23 -20 -28 -32 -28 -78 -1 -56 -19 -93 -30 -63 -3 9
-6 30 -6 48 0 18 -7 41 -15 52 -15 19 -16 18 -40 -9 -14 -15 -25 -23 -25 -18
0 18 -28 12 -42 -8 -8 -11 -22 -19 -32 -18 -10 1 -28 -10 -39 -25 -22 -29 -17
-49 7 -29 12 10 15 4 21 -42 8 -62 18 -83 35 -72 8 5 10 24 5 61 -7 56 0 98
15 89 4 -3 11 -32 15 -65 7 -61 10 -66 33 -51 10 6 11 20 4 58 -10 57 3 115
18 78 5 -11 9 -34 9 -51 1 -16 7 -39 15 -49 14 -19 15 -19 35 -1 12 11 21 25
21 33 0 10 5 11 19 3 30 -16 50 -12 76 15 45 44 27 165 -25 165 -10 0 -31 -11
-46 -23z"/>
<path d="M5160 13883 c0 -10 7 -27 15 -37 8 -11 15 -28 15 -39 0 -16 -7 -13
-41 17 -45 41 -57 42 -79 3 -17 -30 -6 -49 13 -23 12 16 14 16 38 -3 14 -11
36 -40 49 -64 21 -39 22 -49 12 -71 -6 -15 -23 -31 -37 -36 -24 -9 -34 -34
-17 -43 16 -10 52 14 67 44 37 71 25 259 -18 267 -11 2 -17 -3 -17 -15z"/>
<path d="M4991 13789 c-14 -23 -20 -26 -24 -15 -9 22 -33 9 -47 -25 -13 -30
-5 -54 9 -30 11 17 16 8 31 -56 12 -54 16 -58 37 -45 8 5 9 19 1 53 -11 48 -4
104 11 95 5 -3 12 -23 15 -43 11 -63 17 -73 36 -73 20 0 40 27 40 54 0 22 -18
20 -23 -1 -4 -18 -4 -17 -28 80 -12 45 -33 48 -58 6z"/>
<path d="M4834 13716 c-31 -33 -53 -103 -39 -126 7 -12 -3 -50 -14 -50 -4 0
-15 27 -25 61 -13 47 -20 60 -33 57 -10 -2 -22 -12 -28 -23 -5 -11 -18 -19
-27 -17 -9 2 -23 -6 -30 -17 -7 -12 -22 -21 -34 -21 -15 0 -26 -10 -34 -30
-13 -31 -6 -55 9 -31 6 9 14 -4 26 -40 21 -65 31 -77 47 -61 9 9 8 23 -4 63
-16 48 -15 79 1 79 4 0 15 -25 25 -56 10 -33 22 -54 29 -51 13 4 13 30 2 89
-4 20 -4 45 0 55 5 13 12 2 26 -44 15 -49 24 -63 39 -63 12 0 22 9 26 25 5 20
10 23 35 18 24 -4 30 -1 40 21 9 19 15 23 20 14 10 -16 43 15 54 50 7 26 -9
30 -23 6 -7 -12 -14 1 -27 55 -9 39 -20 71 -24 71 -3 0 -20 -15 -37 -34z"/>
<path d="M4420 13593 c-18 -23 -21 -37 -17 -80 4 -37 1 -55 -8 -63 -19 -16
-27 -79 -16 -117 5 -18 6 -33 1 -33 -5 0 -10 -8 -12 -17 -3 -11 -14 8 -28 45
-26 70 -45 78 -69 28 -10 -22 -15 -25 -22 -15 -12 20 -37 -7 -45 -49 -7 -33
11 -47 19 -14 3 14 6 12 14 -8 45 -109 43 -105 59 -89 13 14 13 19 -1 52 -16
40 -20 93 -6 101 4 3 13 -12 20 -33 6 -22 20 -50 31 -63 20 -23 20 -23 35 -4
8 11 15 28 15 38 0 16 3 16 21 6 18 -11 23 -10 39 10 10 12 25 22 34 22 9 0
24 16 33 35 18 38 11 59 -11 30 -12 -17 -13 -17 -18 1 -3 10 -20 56 -37 102
l-31 83 25 11 c27 12 35 48 11 48 -8 0 -24 -12 -36 -27z"/>
<path d="M4128 13263 c-49 -64 -31 -189 25 -181 12 2 26 12 32 23 5 11 17 19
26 17 9 -1 20 8 27 23 15 32 15 55 2 55 -5 0 -10 -4 -10 -10 0 -28 -21 -3 -42
50 -12 33 -25 60 -28 60 -3 -1 -17 -17 -32 -37z"/>
<path d="M3536 12918 c-28 -39 -19 -82 37 -182 28 -53 54 -95 57 -96 3 0 11 4
18 9 11 7 9 18 -12 57 -14 27 -26 56 -26 66 0 36 20 26 45 -22 36 -71 74 -65
75 13 0 25 -18 21 -22 -5 -3 -19 -9 -12 -33 35 -30 58 -60 75 -71 40 -3 -10
-8 -25 -10 -33 -3 -9 -14 2 -30 30 l-25 45 20 16 c24 20 28 49 7 49 -8 0 -22
-10 -30 -22z"/>
<path d="M3490 12736 c0 -8 9 -17 19 -21 22 -7 41 -53 41 -98 l0 -30 -26 24
c-14 13 -32 36 -40 52 -8 15 -21 27 -29 27 -22 0 -19 -43 5 -73 22 -28 28 -81
8 -75 -13 4 -41 54 -53 93 -6 18 -9 17 -36 -15 -19 -23 -29 -44 -27 -60 3 -28
38 -42 38 -16 0 9 -4 16 -10 16 -5 0 -7 7 -3 16 5 12 9 9 18 -14 15 -34 79
-87 95 -77 5 3 10 16 10 28 0 12 4 28 9 36 8 12 12 13 25 1 24 -19 30 -7 34
63 4 73 -19 130 -55 135 -15 2 -23 -2 -23 -12z"/>
<path d="M2940 12311 c-16 -30 -12 -78 10 -121 11 -22 17 -41 13 -41 -5 -1
-15 -2 -23 -3 -10 -1 -15 -12 -15 -32 0 -24 -4 -30 -17 -26 -15 4 -18 -3 -18
-37 0 -23 5 -41 11 -41 6 0 8 7 5 16 -10 25 11 6 45 -41 18 -25 36 -45 41 -45
22 0 17 34 -11 72 -36 48 -40 88 -11 105 17 11 24 7 63 -45 66 -86 70 -96 47
-117 -23 -21 -27 -55 -6 -55 21 0 46 39 46 72 0 40 -17 77 -62 137 -36 47 -39
56 -29 78 15 32 7 41 -17 20 -16 -15 -19 -14 -41 19 l-24 35 22 22 c11 13 21
29 21 35 0 19 -38 14 -50 -7z"/>
<path d="M1915 11921 c-71 -88 -131 -161 -135 -161 -3 0 -27 51 -54 113 -72
168 -74 167 -52 -23 7 -63 12 -116 11 -118 -2 -2 -63 20 -136 49 -74 28 -163
62 -197 75 -35 14 -62 20 -60 15 1 -5 68 -61 148 -126 80 -64 151 -122 158
-129 11 -11 -9 -23 -107 -67 -112 -49 -153 -76 -98 -65 37 8 238 28 242 25 2
-2 -30 -89 -71 -194 -40 -104 -72 -194 -71 -199 2 -4 63 67 137 158 l133 167
56 -127 c64 -145 69 -141 48 37 l-13 115 190 -73 c104 -41 194 -72 199 -70 6
2 -60 60 -147 130 -86 69 -156 130 -156 134 0 7 64 37 209 99 19 8 32 17 29
19 -3 3 -65 -1 -138 -10 -73 -9 -134 -14 -135 -13 -1 2 31 88 72 192 40 104
72 194 70 199 -2 6 -61 -63 -132 -152z"/>
<path d="M2745 11881 c-3 -17 -14 -31 -26 -34 -15 -4 -19 -14 -19 -46 0 -31 4
-41 16 -41 11 0 14 6 9 23 -5 17 2 13 31 -18 79 -87 104 -123 98 -139 -3 -9
-2 -16 4 -16 12 0 62 64 62 79 0 14 -17 14 -25 0 -5 -7 -15 -3 -30 11 -22 21
-22 23 -7 50 14 24 14 33 3 70 -25 82 -102 123 -116 61z"/>
<path d="M2611 11696 c-11 -13 -7 -23 23 -59 20 -24 36 -55 36 -68 0 -21 -3
-20 -44 20 -29 29 -50 42 -60 38 -16 -7 -21 -33 -10 -61 8 -21 24 -20 24 1 0
11 12 2 36 -25 43 -50 72 -55 80 -13 4 17 14 31 25 34 19 5 25 39 13 71 -9 25
-27 19 -21 -6 4 -17 -8 -8 -42 30 -41 45 -50 50 -60 38z"/>
<path d="M2496 11528 c-20 -28 -20 -61 -1 -98 18 -35 52 -60 81 -60 69 0 63
130 -8 166 -38 19 -54 18 -72 -8z"/>
<path d="M2430 11415 c0 -9 10 -19 23 -24 12 -5 31 -19 42 -31 l20 -23 -25 9
c-14 5 -43 9 -65 9 -38 0 -40 -2 -43 -32 -2 -25 1 -33 12 -33 9 0 16 7 16 16
0 13 7 15 34 11 58 -9 103 -36 117 -69 10 -23 10 -34 1 -47 -22 -29 -25 -42
-14 -53 20 -20 42 11 42 59 0 52 -35 126 -87 183 -36 40 -73 53 -73 25z"/>
<path d="M2174 10965 c-44 -67 69 -188 124 -133 15 15 16 72 1 101 -30 58 -97
75 -125 32z"/>
<path d="M2052 10968 c-7 -7 -12 -29 -12 -50 0 -29 8 -47 34 -76 25 -27 32
-42 25 -52 -13 -21 -11 -30 6 -30 8 0 15 5 15 10 0 20 23 9 86 -42 62 -51 80
-87 54 -103 -15 -10 -12 -45 5 -45 8 0 19 9 25 19 27 52 -2 116 -82 178 -52
41 -58 50 -53 74 3 15 1 30 -4 34 -6 3 -11 3 -11 -2 0 -4 -5 -15 -10 -23 -7
-12 -13 -11 -34 10 -28 25 -33 49 -15 67 12 12 6 43 -9 43 -4 0 -13 -5 -20
-12z"/>
<path d="M1917 10673 c-13 -12 -7 -79 9 -101 20 -29 152 -122 174 -122 26 0
40 21 40 61 0 54 -55 112 -102 107 -27 -2 -34 -8 -38 -31 l-5 -28 -35 30 c-28
24 -33 32 -22 42 16 17 16 49 -1 49 -8 0 -17 -3 -20 -7z"/>
<path d="M1865 10256 c-9 -55 21 -115 70 -142 42 -22 65 -13 65 26 0 16 5 30
10 30 11 0 14 49 4 74 -8 20 -24 21 -24 1 0 -21 -12 -19 -56 13 -64 46 -62 46
-69 -2z"/>
<path d="M1781 10011 c-9 -6 -12 -20 -9 -40 3 -21 0 -31 -9 -31 -15 0 -17 -47
-3 -70 7 -11 4 -16 -13 -21 -18 -4 -22 -12 -21 -42 1 -21 -3 -35 -10 -34 -15
3 -19 -38 -6 -62 14 -27 33 -27 25 -1 -5 15 12 9 84 -31 52 -29 91 -57 91 -66
0 -30 23 -6 36 37 14 49 10 65 -11 37 -11 -15 -17 -16 -39 -6 -22 10 -26 19
-26 54 0 37 -5 48 -39 78 -22 19 -42 45 -46 58 l-7 22 33 -21 c19 -11 57 -33
84 -49 28 -16 54 -39 60 -51 14 -32 20 -28 34 29 14 55 9 73 -13 44 -13 -18
-15 -18 -38 -3 -20 13 -23 23 -20 50 5 41 -34 93 -85 114 -38 16 -34 16 -52 5z"/>
<path d="M1674 9639 c3 -59 27 -96 78 -122 48 -24 71 -14 66 29 -3 25 0 34 10
34 19 0 8 58 -14 80 -15 14 -16 12 -12 -13 l5 -27 -62 35 c-35 19 -65 35 -68
35 -3 0 -4 -23 -3 -51z"/>
<path d="M1532 9495 c4 -34 2 -45 -8 -45 -20 0 -18 -60 3 -89 16 -23 188 -111
218 -111 20 0 20 48 0 76 -13 20 -13 21 10 16 20 -3 25 0 25 17 0 30 -29 83
-40 76 -7 -4 -6 -13 0 -25 5 -10 10 -21 10 -24 0 -3 -43 15 -96 42 l-95 47 6
33 c5 28 3 32 -16 32 -20 0 -21 -4 -17 -45z"/>
<path d="M1580 9228 c0 -49 29 -103 62 -119 19 -8 55 -59 42 -59 -2 0 -28 12
-59 27 -43 21 -57 25 -67 15 -9 -9 -10 -19 -1 -42 13 -34 9 -36 -41 -15 -32
13 -36 20 -36 50 0 24 -5 35 -15 35 -25 0 -19 -67 8 -93 20 -20 192 -97 217
-97 6 0 10 8 10 18 0 13 -13 23 -41 32 -35 12 -86 56 -76 67 2 2 25 -6 51 -17
26 -11 54 -20 62 -20 21 0 28 25 14 50 -10 18 -8 24 6 34 11 9 15 21 12 39 -3
15 -1 27 3 27 12 0 11 47 -1 71 -14 25 -33 25 -25 -1 6 -18 4 -19 -19 -10 -14
5 -43 19 -66 30 l-40 20 0 -42z"/>
<path d="M1487 8473 c-4 -3 -7 -18 -7 -33 0 -33 45 -77 88 -86 17 -4 29 -11
26 -16 -3 -5 -1 -15 6 -23 8 -10 -5 -8 -50 6 -34 10 -66 17 -71 13 -14 -8 -11
-37 6 -61 l16 -22 -48 14 c-26 8 -49 15 -50 15 -2 0 -3 16 -3 35 0 25 -4 35
-15 35 -40 0 -22 -81 24 -104 23 -12 200 -66 215 -66 3 0 6 9 6 20 0 15 -11
22 -44 31 -43 11 -86 43 -73 55 3 3 28 -1 56 -11 70 -23 91 -4 56 49 -15 22
-14 24 5 29 25 7 26 33 0 75 -21 34 -48 45 -35 15 17 -42 17 -53 1 -53 -9 0
-21 12 -27 27 -19 51 -60 79 -82 56z"/>
<path d="M1356 7931 c-10 -15 14 -69 37 -84 12 -8 34 -17 50 -21 17 -4 27 -13
27 -25 0 -21 63 -81 85 -81 14 0 58 -40 51 -47 -2 -2 -34 3 -71 12 -37 8 -70
14 -72 12 -2 -3 4 -26 14 -53 14 -37 28 -54 58 -71 42 -24 80 -29 105 -13 12
7 13 15 4 39 -8 21 -9 32 -1 40 8 8 4 20 -11 41 -20 26 -21 31 -7 36 18 7 20
45 3 62 -9 9 -9 12 0 12 19 0 14 35 -8 63 -18 22 -18 26 -3 31 9 4 23 0 33 -9
18 -17 40 -20 40 -6 0 18 -63 62 -84 59 -16 -2 -21 -10 -21 -33 0 -16 3 -37 7
-46 6 -15 -4 -14 -95 5 l-102 21 -3 33 c-3 30 -24 44 -36 23z"/>
<path d="M1487 7533 c-26 -25 16 -85 71 -101 41 -12 88 -52 61 -52 -40 0 -186
24 -196 33 -7 5 -13 20 -13 33 0 15 -6 24 -15 24 -23 0 -18 -45 8 -75 18 -22
37 -28 117 -40 52 -8 105 -15 118 -15 33 0 38 27 11 56 -22 24 -23 26 -6 35
25 15 21 44 -12 81 -34 38 -51 33 -25 -7 13 -21 14 -28 4 -38 -9 -9 -15 -8
-24 7 -28 46 -49 66 -70 66 -12 0 -26 -3 -29 -7z"/>
<path d="M1510 7212 c0 -33 27 -62 57 -62 11 0 30 11 43 25 13 14 29 25 36 25
18 0 26 -30 9 -36 -18 -7 -20 -45 -2 -63 10 -11 -1 -12 -61 -6 l-74 6 7 -23
c23 -74 74 -112 143 -106 39 3 51 22 36 56 -4 9 -6 25 -5 35 2 10 -5 27 -15
38 -13 15 -15 22 -6 31 16 16 15 60 0 80 -25 31 -54 31 -91 -2 -43 -38 -50
-38 -42 0 6 26 4 30 -14 30 -16 0 -21 -6 -21 -28z"/>
<path d="M1577 6863 c-4 -3 -7 -19 -7 -34 0 -36 34 -60 95 -67 25 -2 42 -8 40
-13 -3 -4 3 -13 12 -19 14 -8 1 -10 -55 -8 -60 3 -72 0 -70 -12 2 -10 20 -17
54 -21 54 -7 94 -24 94 -39 0 -6 -29 -10 -65 -10 -72 0 -83 -13 -43 -50 32
-29 56 -22 26 8 -9 9 3 12 55 12 73 0 85 13 50 53 -13 15 -15 21 -5 24 20 7
14 30 -13 51 -21 17 -23 21 -10 32 22 18 18 40 -12 72 -35 37 -63 38 -34 2 43
-54 12 -62 -38 -9 -31 33 -59 44 -74 28z"/>
<path d="M1682 6470 c-29 -12 -37 -33 -22 -60 11 -20 10 -21 -31 -18 -37 3
-44 7 -49 28 -3 14 -12 25 -20 25 -21 0 -14 -45 11 -70 16 -16 36 -21 105 -24
139 -5 177 11 159 68 -13 41 -104 72 -153 51z"/>
<path d="M1590 6250 c0 -11 10 -31 23 -44 19 -19 21 -25 9 -32 -19 -12 1 -57
33 -74 28 -15 239 -10 255 6 15 15 3 39 -26 55 -22 12 -24 15 -10 25 25 18 19
43 -16 64 -35 21 -54 9 -22 -15 16 -11 5 -14 -79 -20 -110 -8 -124 -5 -129 27
-4 30 -38 38 -38 8z"/>
<path d="M1876 6081 c-3 -5 2 -13 12 -17 11 -6 -5 -10 -52 -14 -40 -3 -71 -10
-73 -17 -5 -13 26 -47 48 -55 11 -5 12 -8 2 -19 -18 -18 -16 -39 4 -61 17 -19
16 -19 -32 -16 -43 3 -50 6 -53 26 -4 24 -42 32 -42 9 0 -21 31 -58 58 -68 33
-13 212 7 231 26 19 19 6 61 -25 82 -15 9 -47 17 -75 17 -30 1 -49 5 -49 13 0
6 -6 14 -12 16 -7 3 3 6 23 6 95 2 128 30 77 65 -26 18 -35 20 -42 7z"/>
<path d="M9764 14367 c-16 -14 -49 -63 -73 -109 -59 -111 -51 -134 33 -102 12
4 16 0 16 -15 0 -17 6 -21 33 -21 47 0 77 10 77 26 0 17 -1 17 -34 4 -17 -6
-27 -6 -32 2 -9 14 23 38 51 38 27 0 58 33 53 57 -2 12 -14 19 -36 21 -27 3
-40 -4 -72 -35 -21 -22 -50 -45 -65 -51 -26 -12 -24 -8 24 80 50 93 50 93 86
90 31 -3 36 0 33 15 -5 29 -60 29 -94 0z"/>
<path d="M9358 14369 c-24 -14 -23 -33 2 -26 11 3 20 3 20 1 0 -21 -89 -175
-103 -180 -28 -9 -8 -21 46 -29 32 -5 47 -4 47 4 0 6 -7 11 -15 11 -18 0 -19
11 -4 43 8 18 17 22 37 20 57 -8 127 66 120 125 -3 24 -7 27 -40 26 -21 -1
-38 3 -38 7 0 12 -51 11 -72 -2z"/>
<path d="M9528 14291 c-32 -33 -39 -46 -36 -73 3 -31 5 -33 36 -30 17 1 32 -2
32 -8 0 -13 46 -13 71 0 25 14 25 33 -1 25 -27 -8 -25 1 10 60 16 28 30 53 30
58 0 4 -23 7 -51 7 -46 0 -55 -4 -91 -39z"/>
<path d="M10015 14180 c-43 -21 -75 -64 -75 -99 0 -17 6 -21 31 -21 18 0 37
-7 43 -15 9 -12 18 -13 49 -4 20 5 37 15 37 21 0 6 -9 8 -20 5 -11 -3 -20 -3
-20 -1 0 3 16 30 36 61 19 30 34 56 32 58 -2 1 -19 5 -38 9 -25 4 -47 0 -75
-14z"/>
<path d="M10153 14150 c-25 -10 -32 -36 -8 -26 22 8 19 -1 -17 -57 -25 -40
-29 -50 -17 -58 21 -13 23 -12 44 27 20 38 57 68 75 62 6 -2 -3 -21 -19 -43
-47 -62 -40 -92 17 -76 27 8 31 7 34 -12 2 -17 10 -22 36 -22 19 0 32 -5 32
-12 0 -14 46 -18 74 -7 23 9 20 27 -4 21 -11 -3 -20 -3 -20 -1 0 8 81 127 103
151 16 18 23 20 43 11 18 -8 28 -8 35 -1 19 19 0 33 -41 33 -29 0 -48 -8 -73
-30 -21 -18 -46 -30 -62 -30 -31 0 -90 -33 -104 -58 -8 -13 -51 -26 -51 -15 0
3 14 24 30 48 42 61 40 78 -8 73 -30 -2 -39 0 -38 12 1 18 -30 23 -61 10z"/>
<path d="M10655 14060 c-26 -10 -63 -51 -109 -119 -40 -59 -43 -73 -20 -95 45
-46 154 19 154 90 0 31 -2 34 -31 34 l-32 0 26 33 c25 32 36 36 69 22 12 -5
20 -2 24 10 12 30 -35 45 -81 25z"/>
<path d="M10793 13987 c-35 -19 -142 -159 -143 -186 0 -22 3 -23 39 -18 35 4
40 2 43 -17 2 -14 11 -22 28 -24 13 -2 29 -11 36 -20 8 -11 21 -14 48 -9 33 5
36 4 36 -18 0 -27 17 -35 71 -35 25 0 39 5 39 13 0 7 -13 12 -32 12 -44 0 -45
18 -5 62 34 36 36 37 54 20 25 -22 43 -22 43 2 0 51 -107 36 -153 -21 -7 -10
-19 -13 -30 -9 -17 6 -14 12 22 56 23 27 41 53 41 57 0 4 -21 10 -47 14 -39 6
-55 3 -90 -16 -24 -13 -43 -27 -43 -31 0 -5 -11 -9 -25 -9 -14 0 -25 3 -25 6
0 5 40 58 117 154 2 2 17 -1 34 -7 25 -10 31 -9 36 4 12 30 -51 44 -94 20z"/>
<path d="M11068 13728 c-42 -46 -78 -88 -78 -95 0 -22 25 -20 53 5 l27 26 0
-77 c0 -64 3 -80 21 -98 27 -27 73 -23 77 9 2 15 -2 22 -12 22 -9 0 -16 -4
-16 -10 0 -16 -27 -11 -34 6 -3 9 -6 43 -6 77 l0 62 36 1 c60 1 74 55 17 64
l-32 5 29 35 c26 31 31 34 49 23 30 -19 53 -16 49 5 -2 13 -15 18 -52 20 l-49
3 -79 -83z"/>
<path d="M11267 13623 c-11 -10 -8 -43 3 -43 6 0 13 6 16 14 3 8 12 12 20 9
10 -4 8 -10 -11 -25 -23 -18 -55 -76 -55 -99 0 -5 20 -9 44 -9 41 0 43 -1 38
-27 l-5 -26 53 6 c29 4 66 15 84 25 17 10 40 16 49 13 15 -5 11 -13 -23 -46
-22 -21 -40 -45 -40 -52 0 -18 41 -26 70 -14 l25 10 -23 7 c-21 6 -20 8 23 46
62 55 59 75 -11 69 -18 -1 -20 3 -16 24 6 33 -25 35 -37 2 -12 -30 -28 -43
-73 -55 -37 -10 -38 -10 -27 11 6 12 25 37 42 55 23 23 28 35 20 43 -16 16
-50 1 -69 -31 -15 -24 -61 -46 -73 -34 -8 8 32 57 60 72 16 10 29 20 29 23 0
8 -69 39 -89 39 -10 0 -21 -3 -24 -7z"/>
<path d="M11769 13392 c-37 -25 -159 -134 -159 -143 0 -4 7 -10 16 -13 10 -4
30 6 55 29 25 22 49 35 67 35 26 0 26 -2 -22 -43 -60 -53 -59 -77 4 -77 22 0
40 5 40 10 0 6 -10 10 -22 10 -20 0 -16 7 26 43 57 50 58 77 4 77 l-33 1 38
35 c36 33 40 34 56 20 34 -31 71 -10 39 22 -18 18 -79 14 -109 -6z"/>
<path d="M11982 13220 c-27 -16 -36 -18 -52 -8 -24 15 -37 4 -20 -17 8 -10 9
-19 4 -25 -24 -23 -137 -110 -144 -110 -4 0 -15 9 -25 20 -20 22 -40 26 -51 8
-10 -16 33 -48 66 -48 43 0 76 16 140 66 50 39 61 44 79 34 29 -15 50 -1 26
16 -15 11 -16 16 -5 29 28 34 50 38 75 15 24 -23 45 -20 45 5 0 37 -86 46
-138 15z"/>
<path d="M11970 13088 c-38 -20 -45 -28 -45 -53 0 -24 5 -31 25 -35 14 -3 25
-12 25 -20 0 -10 13 -16 43 -18 40 -3 60 13 25 20 -13 2 -2 15 39 43 32 22 57
42 58 45 0 8 -83 40 -105 40 -12 0 -41 -10 -65 -22z"/>
<path d="M12137 13008 c-48 -35 -89 -69 -92 -76 -8 -22 4 -32 40 -32 27 0 33
-3 28 -16 -8 -22 35 -64 67 -64 34 0 50 17 50 55 0 16 4 36 9 44 10 16 31 6
31 -15 0 -8 7 -14 15 -14 18 0 20 31 3 48 -7 7 -27 12 -45 12 -37 0 -53 -21
-53 -69 0 -25 -4 -31 -21 -31 -17 0 -20 5 -16 21 7 26 -14 49 -44 49 -16 0 1
17 65 66 81 61 89 65 105 50 22 -20 51 -21 51 -1 0 20 -32 35 -73 35 -27 0
-55 -15 -120 -62z"/>
<path d="M12445 12708 c-39 -14 -75 -47 -75 -69 0 -10 10 -25 22 -33 25 -18
88 -22 88 -6 0 6 -11 10 -25 10 -39 0 -44 29 -10 57 35 30 62 26 83 -12 9 -16
21 -32 26 -34 5 -2 -12 -16 -38 -32 -58 -36 -62 -64 -10 -74 42 -7 55 0 30 18
-16 12 -13 16 33 41 58 31 65 52 21 67 -19 7 -30 18 -30 29 0 23 -37 50 -65
49 -11 0 -33 -5 -50 -11z"/>
<path d="M12690 12480 c0 -5 10 -10 23 -10 16 -1 4 -11 -41 -37 -55 -31 -62
-38 -49 -50 12 -13 21 -11 66 12 37 20 59 25 78 20 21 -5 24 -8 13 -15 -12 -7
-11 -10 4 -16 14 -6 9 -12 -31 -33 -60 -33 -70 -65 -22 -75 42 -8 49 -8 49 4
0 6 -7 10 -15 10 -29 0 -14 16 40 43 59 29 65 38 38 59 -10 7 -18 20 -18 28 0
9 -11 16 -27 18 -17 2 -25 8 -22 16 3 9 -7 18 -27 25 -40 14 -59 14 -59 1z"/>
<path d="M12840 12320 c0 -5 8 -10 18 -10 9 -1 -11 -15 -45 -33 -52 -27 -60
-35 -52 -49 9 -16 14 -15 64 9 43 21 58 25 77 16 22 -9 21 -11 -22 -30 -25
-11 -52 -28 -60 -37 -13 -16 -12 -20 5 -32 10 -8 27 -14 36 -14 13 0 17 -7 16
-27 -2 -23 5 -31 36 -46 22 -11 45 -16 55 -12 14 6 11 10 -16 22 -35 14 -39
41 -6 34 10 -2 39 -4 64 -5 36 -1 45 3 48 17 2 10 -2 24 -8 32 -17 20 -109 20
-138 -1 -12 -8 -22 -11 -22 -5 0 5 -8 11 -17 13 -12 3 1 14 40 33 66 34 76 62
27 72 -24 4 -29 10 -25 24 4 12 -1 21 -14 28 -25 14 -61 14 -61 1z"/>
<path d="M13993 12186 c-225 -73 -332 -328 -228 -542 68 -138 227 -226 379
-209 l62 6 82 -172 82 -172 -81 7 c-89 7 -109 0 -109 -39 0 -20 16 -29 148
-75 81 -29 165 -53 186 -54 39 -1 40 0 61 54 12 30 39 106 60 168 42 122 41
147 -6 147 -19 0 -34 -15 -68 -68 -24 -37 -45 -66 -47 -64 -2 2 -39 79 -83
172 l-80 169 40 44 c23 24 53 69 67 100 24 50 27 69 27 162 0 96 -3 110 -29
165 -38 77 -105 144 -181 180 -50 24 -75 29 -150 32 -57 2 -105 -2 -132 -11z
m233 -96 c61 -26 120 -84 151 -148 75 -152 -3 -341 -165 -402 -153 -58 -324
21 -382 177 -39 104 -19 209 56 293 94 103 221 133 340 80z"/>
<path d="M13210 11870 c0 -5 8 -10 18 -11 13 0 14 -2 2 -6 -8 -3 -39 -17 -69
-30 -49 -21 -53 -25 -40 -39 14 -13 21 -12 63 7 32 14 57 18 74 14 25 -6 22
-9 -36 -32 -46 -19 -62 -30 -60 -42 4 -19 18 -18 79 5 27 11 53 15 65 10 16
-6 10 -11 -31 -28 -27 -10 -57 -26 -65 -34 -13 -14 -13 -17 4 -30 22 -16 66
-19 66 -5 0 5 -8 11 -17 13 -10 2 10 14 45 26 67 25 79 47 35 67 -14 6 -21 17
-20 29 1 15 -7 23 -32 32 -28 9 -31 12 -15 18 18 7 18 9 -5 27 -25 20 -61 26
-61 9z"/>
<path d="M13340 11679 c0 -6 10 -13 21 -16 16 -5 -5 -16 -77 -43 -59 -22 -103
-34 -108 -29 -13 12 -26 11 -26 -2 0 -15 50 -79 62 -79 5 0 6 9 3 20 -8 26 43
50 60 27 28 -38 94 -48 150 -21 55 26 57 70 3 81 -24 5 -27 8 -15 15 23 12 11
35 -25 47 -39 14 -48 14 -48 0z"/>
<path d="M13390 11502 c-60 -30 -45 -84 28 -98 41 -8 41 6 0 29 -27 15 -30 20
-17 27 16 9 90 -21 118 -48 17 -16 17 -16 -47 -37 -30 -9 -51 -22 -49 -28 4
-13 22 -13 98 -1 43 6 48 4 64 -20 11 -16 14 -30 9 -35 -9 -8 -152 -51 -169
-51 -6 0 -19 14 -28 30 -20 34 -47 40 -47 11 0 -25 43 -59 84 -66 19 -4 62 3
112 18 78 22 82 23 93 5 16 -26 32 -22 25 6 -4 18 -1 25 18 30 42 11 58 6 70
-19 12 -27 48 -35 48 -11 0 8 -14 26 -32 41 -27 23 -39 26 -87 23 -54 -3 -56
-2 -53 20 3 17 -2 25 -17 29 -12 3 -21 14 -21 24 0 12 -13 26 -35 36 -26 12
-32 20 -24 29 15 19 2 49 -27 62 -35 17 -73 15 -114 -6z"/>
<path d="M13857 10793 c-15 -15 -7 -34 12 -28 11 3 22 1 26 -5 4 -6 -6 -10
-26 -10 -31 0 -109 -43 -109 -60 0 -4 18 -17 40 -28 l40 -20 -22 -15 -23 -16
25 -20 c54 -42 173 -52 187 -15 9 24 -4 28 -40 11 -27 -13 -41 -14 -71 -6 -58
16 -40 36 47 54 18 4 27 12 27 25 0 23 -29 26 -78 9 -23 -8 -36 -7 -53 2 -22
11 -22 12 -4 25 10 8 40 14 67 14 26 0 48 3 48 6 0 9 -42 68 -55 76 -13 10
-30 10 -38 1z"/>
<path d="M13960 10522 c-70 -13 -95 -21 -95 -32 0 -12 12 -14 57 -12 32 2 67
-2 80 -9 22 -12 22 -12 3 -20 -11 -4 -34 -8 -51 -8 -16 -1 -39 -7 -49 -15 -19
-14 -19 -15 -2 -34 21 -23 54 -34 63 -21 3 5 -2 12 -11 15 -26 10 3 24 51 24
26 0 47 6 55 16 11 14 10 20 -14 40 l-28 23 23 6 c58 13 72 10 86 -17 15 -31
30 -36 39 -12 9 23 -37 64 -78 69 -18 2 -77 -4 -129 -13z"/>
<path d="M14088 9950 c-24 -15 -23 -46 3 -63 13 -10 16 -16 8 -19 -18 -6 -5
-34 26 -54 28 -18 45 -13 26 9 -9 12 0 16 58 21 l70 7 -17 31 c-10 17 -30 40
-44 51 -30 23 -105 32 -130 17z"/>
<path d="M14230 9812 c0 -4 5 -13 12 -20 9 -9 -3 -12 -56 -12 -59 0 -67 -2
-64 -17 2 -14 16 -19 63 -23 62 -5 85 -14 85 -32 0 -6 -12 -8 -29 -5 -16 3
-45 3 -65 0 -44 -7 -48 -33 -9 -58 23 -15 24 -19 10 -27 -23 -12 -21 -34 3
-58 11 -11 16 -20 10 -20 -18 0 -11 -26 13 -48 22 -21 47 -29 47 -16 0 4 -8
13 -17 20 -15 11 -1 13 94 14 l112 0 3 -27 c4 -36 38 -45 38 -10 0 33 -41 68
-89 74 -28 4 -42 11 -47 25 -6 20 -75 57 -106 58 -10 0 -27 8 -38 18 -20 17
-19 17 46 22 77 6 88 18 48 55 -20 19 -23 25 -10 25 23 0 20 17 -9 45 -24 25
-45 32 -45 17z"/>
<path d="M14288 9129 c-22 -12 -23 -42 -3 -59 12 -10 13 -15 4 -21 -10 -6 -10
-13 -1 -33 13 -30 52 -54 52 -33 0 7 -4 17 -10 23 -11 11 154 6 187 -7 16 -6
23 -17 23 -34 0 -19 5 -25 21 -25 18 0 20 4 15 28 -10 40 -51 72 -92 72 -26 0
-34 4 -34 18 0 25 -30 51 -77 68 -46 16 -62 17 -85 3z"/>
<path d="M14340 8651 c0 -19 25 -31 67 -31 12 0 35 -11 50 -25 31 -27 24 -29
-46 -16 -25 5 -51 7 -58 4 -19 -7 -16 -37 5 -56 32 -29 57 -18 30 12 -11 11
-10 13 4 8 10 -4 40 -9 68 -13 47 -6 50 -5 50 16 0 13 -8 32 -17 43 -18 19
-17 20 32 12 58 -8 57 -7 60 -37 4 -37 4 -38 20 -38 28 0 18 56 -16 84 -17 14
-34 26 -39 26 -15 0 -164 20 -187 25 -18 4 -23 1 -23 -14z"/>
<path d="M14428 8279 c-21 -12 -24 -39 -4 -39 7 0 19 7 26 15 19 23 46 18 82
-15 26 -23 30 -32 19 -39 -20 -13 -143 17 -163 40 -9 10 -18 19 -21 19 -3 0
-5 -24 -6 -54 0 -38 5 -58 16 -67 14 -12 15 -10 9 19 -6 24 -4 31 6 28 7 -2
25 -7 40 -10 20 -5 28 -14 33 -38 10 -48 42 -78 81 -78 41 0 54 21 54 87 0 57
-26 105 -69 128 -34 17 -78 19 -103 4z"/>
<path d="M14371 7936 c-8 -9 -8 -21 -2 -39 7 -18 7 -27 -2 -30 -17 -6 18 -77
38 -77 12 0 14 4 5 19 -10 19 -9 20 57 1 37 -10 69 -17 71 -16 8 8 -18 90 -35
108 -36 41 -110 60 -132 34z"/>
<path d="M14359 7626 c-17 -37 -2 -75 40 -103 60 -41 121 -25 121 30 0 47 -45
88 -104 94 -42 5 -46 3 -57 -21z"/>
<path d="M14340 7350 c0 -13 11 -24 32 -33 l32 -13 -61 -22 c-74 -27 -95 -49
-91 -94 2 -25 8 -34 26 -36 15 -2 22 2 22 12 0 9 -7 16 -16 16 -9 0 -14 7 -12
17 2 11 28 28 68 44 l65 26 12 -28 c13 -28 45 -45 64 -33 6 3 9 22 7 40 -2 19
-3 34 -1 34 1 0 20 -7 42 -16 34 -13 39 -19 37 -47 -1 -40 27 -45 32 -5 5 46
-40 83 -152 123 -54 19 -100 35 -102 35 -2 0 -4 -9 -4 -20z"/>
<path d="M14200 7025 c-20 -24 -4 -80 33 -112 18 -15 62 -41 99 -56 47 -20 65
-33 61 -43 -3 -8 -2 -22 2 -31 6 -15 9 -14 19 10 l12 28 35 -24 c23 -16 33
-30 31 -43 -2 -10 -5 -23 -5 -28 -3 -16 30 -18 36 -2 12 32 -13 86 -54 113
-27 18 -39 33 -39 49 0 29 -16 32 -23 4 -5 -19 -8 -19 -84 15 -43 20 -82 40
-88 46 -5 5 -8 27 -6 49 3 42 -8 51 -29 25z"/>
<path d="M14231 6676 c-7 -8 -9 -25 -5 -40 4 -16 2 -26 -5 -26 -14 0 -14 -32
1 -65 13 -30 33 -34 25 -5 -7 27 7 25 70 -10 l53 -30 0 47 c0 60 -26 104 -73
126 -43 21 -51 21 -66 3z"/>
<path d="M14167 6403 c-16 -15 -4 -34 32 -53 37 -18 71 -54 71 -73 0 -4 -20 4
-43 18 -56 32 -87 33 -87 3 0 -13 5 -30 10 -38 7 -11 4 -16 -13 -20 -27 -7
-33 -37 -17 -85 15 -45 33 -35 24 12 -6 32 -5 35 10 30 10 -4 20 -7 22 -7 2 0
4 -12 4 -28 0 -39 27 -74 53 -70 17 2 23 11 25 39 3 31 -2 41 -37 71 -21 20
-42 46 -46 58 -7 22 -5 21 47 -8 67 -38 87 -32 71 23 l-11 36 41 -24 c37 -20
42 -27 42 -57 0 -25 5 -36 18 -38 14 -3 17 4 17 36 0 23 -7 48 -17 60 -22 26
-207 124 -216 115z"/>
<path d="M7905 13283 c-124 -16 -255 -83 -351 -178 -126 -125 -185 -266 -187
-445 -1 -190 54 -323 187 -456 129 -128 264 -184 446 -184 183 0 318 56 445
184 90 90 142 178 170 284 21 85 15 96 -20 37 -146 -250 -482 -292 -680 -84
-164 172 -164 417 1 590 123 128 306 169 463 103 32 -14 57 -11 35 4 -5 4 -31
22 -57 40 -124 87 -293 126 -452 105z"/>
<path d="M6726 10928 c-9 -12 -16 -33 -16 -46 0 -12 -7 -33 -16 -47 -9 -14
-14 -40 -12 -67 2 -36 7 -44 26 -46 12 -2 22 1 22 7 0 6 9 11 19 11 11 0 22 8
25 18 5 14 14 17 34 14 22 -3 31 2 42 22 16 31 6 47 -14 21 -7 -10 -15 -14
-19 -9 -8 13 39 68 52 60 6 -4 11 -20 11 -37 0 -20 5 -29 16 -29 13 0 15 7 11
37 -4 25 -1 45 10 64 9 16 14 31 11 34 -8 8 -57 -20 -73 -41 -8 -11 -14 -14
-15 -6 0 20 -28 14 -44 -10 -9 -12 -16 -37 -16 -55 0 -38 -17 -53 -25 -21 -23
104 -23 107 -4 113 22 7 26 35 5 35 -8 0 -22 -10 -30 -22z"/>
<path d="M6640 10820 c0 -5 -7 -10 -15 -10 -9 0 -21 -11 -27 -25 -8 -19 -16
-23 -33 -19 -44 11 -72 -56 -45 -107 25 -47 87 2 78 61 -7 46 10 46 22 1 7
-27 15 -38 24 -35 10 4 12 14 5 42 -6 27 -4 43 6 59 19 29 19 43 0 43 -8 0
-15 -4 -15 -10z"/>
<path d="M5862 10378 c-21 -21 -13 -70 24 -136 26 -45 39 -61 47 -53 7 7 5 20
-8 44 -25 48 -14 69 13 24 25 -43 39 -47 48 -13 3 13 12 23 22 22 22 -1 48 52
33 67 -8 8 -11 7 -11 -5 0 -9 -5 -20 -11 -24 -8 -5 -9 6 -4 35 5 33 4 42 -10
47 -9 4 -24 0 -33 -10 -13 -13 -14 -23 -6 -56 14 -50 6 -59 -17 -20 -22 36
-37 38 -48 8 -9 -23 -9 -23 -22 5 -9 21 -10 30 -1 39 14 14 16 38 4 38 -4 0
-13 -5 -20 -12z"/>
<path d="M5557 9954 c-12 -13 -8 -59 8 -81 22 -31 2 -37 -25 -8 -30 32 -40 32
-40 0 0 -18 -4 -23 -15 -19 -12 5 -15 -2 -15 -32 0 -25 3 -34 9 -26 6 10 15 6
35 -19 19 -23 30 -29 38 -21 8 8 3 20 -16 42 -14 17 -26 39 -26 48 0 12 8 7
26 -15 31 -40 54 -43 54 -8 0 18 5 25 19 25 20 0 31 18 31 51 0 26 -16 24 -25
-3 -7 -19 -9 -15 -14 22 -6 42 -25 62 -44 44z"/>
<path d="M5277 9683 c-13 -12 -7 -71 8 -83 8 -7 15 -28 15 -47 0 -18 6 -44 13
-56 9 -14 11 -33 7 -52 -8 -33 -17 -21 -22 30 -2 22 -8 30 -23 30 -29 0 -32
-50 -6 -86 29 -39 26 -44 -8 -20 -37 26 -51 27 -51 1 0 -11 -4 -20 -10 -20 -5
0 -10 -9 -10 -20 0 -11 -4 -20 -10 -20 -5 0 -10 -14 -10 -31 0 -20 4 -29 13
-26 6 2 25 -5 40 -16 42 -29 54 -8 17 28 -16 16 -30 33 -30 39 0 5 14 -3 30
-19 24 -23 33 -26 42 -17 10 10 6 18 -20 38 -17 14 -32 30 -32 35 0 6 12 1 26
-10 36 -28 54 -27 54 4 0 16 6 25 15 25 11 0 15 11 15 40 0 33 3 40 20 40 13
0 20 7 20 20 0 11 5 20 10 20 6 0 10 14 10 30 0 17 -5 30 -11 30 -5 0 -7 -4
-4 -10 13 -21 -7 -9 -50 31 -38 35 -43 45 -38 70 5 27 -5 38 -20 22z"/>
<path d="M4990 8832 c0 -27 7 -45 21 -58 11 -10 25 -27 31 -37 9 -17 8 -17
-21 -3 -46 24 -64 21 -57 -9 7 -26 6 -26 -22 -11 -24 12 -28 20 -25 41 6 28
-14 35 -24 9 -12 -31 16 -63 86 -99 80 -40 81 -40 81 -21 0 8 -16 24 -36 35
-37 22 -42 41 -6 22 34 -18 54 -14 50 12 -2 12 2 27 9 32 17 14 25 77 13 95
-8 11 -12 12 -18 3 -6 -9 -16 -8 -40 7 -18 11 -35 20 -37 20 -3 0 -5 -17 -5
-38z"/>
<path d="M4930 8569 c0 -10 6 -19 14 -19 8 0 24 -9 37 -21 l24 -21 -22 6 c-13
3 -33 9 -44 13 -20 6 -21 3 -15 -29 5 -27 3 -37 -9 -42 -22 -8 -18 -44 9 -71
l24 -23 -26 1 c-13 1 -27 -4 -29 -10 -3 -9 6 -13 26 -13 40 0 40 -16 0 -24
-24 -5 -30 -10 -27 -28 3 -24 28 -38 28 -15 0 31 77 38 103 9 10 -11 14 -26
10 -40 -4 -16 -1 -22 11 -22 11 0 16 9 16 28 0 28 -27 60 -80 95 l-24 17 27 0
c39 0 48 42 16 76 -12 13 -28 24 -36 24 -7 0 -13 7 -13 16 0 12 5 14 18 9 9
-4 28 -10 41 -13 21 -4 23 -2 19 22 -3 14 -1 26 3 26 14 0 10 37 -5 49 -11 9
-15 9 -18 0 -3 -8 -14 -7 -41 4 -35 15 -37 15 -37 -4z"/>
<path d="M4964 8184 c5 -13 2 -15 -11 -9 -10 4 -30 10 -45 12 -25 5 -26 3 -26
-41 0 -25 4 -49 9 -52 6 -3 3 -11 -7 -18 -25 -19 -9 -53 37 -76 21 -11 39 -23
39 -26 0 -3 -20 -2 -45 2 -47 7 -60 -7 -33 -34 13 -13 5 -15 -29 -6 -13 4 -23
14 -23 25 0 24 -19 34 -26 15 -12 -32 22 -64 83 -76 32 -6 68 -14 81 -17 15
-4 22 -1 22 10 0 9 -14 18 -37 24 -51 12 -53 29 -3 25 42 -4 53 11 28 36 -9 9
-9 12 0 12 15 0 16 34 2 61 -16 29 -31 23 -24 -8 l6 -28 -26 30 c-25 29 -33
55 -18 55 4 0 22 -4 40 -9 28 -9 33 -8 30 6 -2 9 -18 21 -37 28 -49 16 -54 37
-6 22 45 -13 63 0 43 32 -15 25 -33 28 -24 5z"/>
<path d="M8955 10950 c-3 -5 -1 -10 5 -10 7 0 4 -14 -9 -36 -25 -42 -25 -44
-6 -44 8 0 22 11 31 25 9 14 26 31 37 37 19 10 19 9 -1 -20 -30 -42 -29 -66 3
-60 17 4 25 1 25 -8 0 -8 10 -14 24 -14 13 0 26 -5 28 -12 5 -14 58 -2 58 13
0 6 -7 9 -15 5 -9 -3 1 19 22 49 30 42 43 54 62 52 28 -2 40 20 14 25 -25 6
-70 -11 -77 -28 -3 -8 -18 -14 -34 -14 -16 0 -40 -10 -54 -22 -37 -34 -53 -33
-29 1 29 41 28 65 -4 59 -14 -3 -25 -1 -25 3 0 12 -47 11 -55 -1z"/>
<path d="M9414 10840 c-12 -5 -25 -13 -29 -19 -3 -6 -18 -11 -32 -11 -21 0
-23 -2 -13 -15 9 -11 5 -23 -26 -60 -26 -30 -44 -43 -54 -39 -8 3 -21 8 -29
11 -9 4 -12 0 -9 -13 2 -13 13 -20 37 -22 29 -3 39 3 81 48 33 36 52 49 63 44
21 -8 21 -10 -3 -41 -30 -38 -26 -53 15 -53 28 0 35 -4 35 -20 0 -17 7 -20 41
-20 24 0 38 4 34 10 -3 6 -15 10 -26 10 -11 0 -17 5 -14 10 8 12 72 13 79 1 3
-4 -6 -19 -19 -31 -14 -13 -25 -27 -25 -32 0 -16 30 -7 54 17 16 16 36 25 56
25 21 0 30 4 27 13 -2 6 -12 11 -21 11 -9 -1 -16 2 -16 7 0 5 -13 9 -30 9 -23
0 -30 4 -30 20 0 26 -49 27 -81 1 -12 -10 -31 -16 -40 -14 -17 5 -17 6 -1 28
10 13 24 20 34 17 10 -2 18 1 18 7 0 6 -5 11 -11 11 -8 0 -8 4 0 14 15 18 -7
27 -31 13 -12 -8 -21 -7 -32 2 -26 22 0 44 41 36 37 -7 45 8 14 25 -23 12 -29
12 -57 0z"/>
<path d="M9814 10587 c-46 -26 -116 -99 -106 -109 8 -8 21 -3 42 16 17 14 38
26 47 26 9 0 3 -10 -16 -26 -38 -31 -40 -54 -6 -54 18 0 25 -5 25 -19 0 -17
25 -31 58 -31 21 0 13 17 -10 23 -31 9 -15 20 30 21 30 1 37 5 37 21 0 15 -8
21 -34 23 -18 2 -38 -1 -44 -7 -6 -6 -19 -11 -30 -11 -15 0 -13 5 12 26 33 28
33 44 -1 44 -21 0 -21 0 2 25 16 17 27 22 34 15 15 -15 36 -12 36 4 0 7 -10
16 -22 20 -29 7 -29 7 -54 -7z"/>
<path d="M9962 10388 c5 -15 -73 -78 -96 -78 -23 0 -20 -13 9 -40 23 -21 30
-20 26 4 -1 4 4 14 10 22 9 11 15 11 25 3 8 -6 29 -9 48 -7 29 3 32 2 23 -13
-16 -26 -1 -49 33 -49 18 0 29 4 25 10 -3 6 -13 10 -21 10 -8 0 -12 5 -9 10 6
9 27 7 78 -7 16 -4 13 -9 -18 -30 -46 -31 -34 -53 15 -28 33 17 71 17 77 0 3
-11 -80 -65 -101 -65 -8 0 -19 7 -26 15 -9 11 -16 13 -23 6 -17 -17 12 -41 51
-41 20 0 55 11 80 26 38 23 48 25 65 14 18 -11 19 -10 14 9 -7 29 31 51 48 27
15 -20 35 -21 35 -1 0 25 -45 40 -85 28 -29 -9 -35 -9 -35 3 0 8 -9 14 -20 14
-11 0 -20 7 -20 15 0 9 -9 15 -25 15 -15 0 -25 5 -24 13 4 35 -1 39 -45 35
-42 -3 -44 -2 -29 14 17 19 11 48 -11 48 -7 0 -16 7 -20 15 -7 18 -60 21 -54
3z"/>
<path d="M10660 9597 c0 -8 -18 -19 -40 -26 -48 -14 -51 -34 -10 -51 23 -9 28
-16 20 -25 -14 -17 -3 -40 26 -54 31 -14 21 -35 -13 -26 -18 4 -24 2 -21 -7 3
-7 22 -14 43 -16 37 -3 37 -3 31 25 -4 15 -14 34 -23 40 -9 7 -13 16 -10 20 4
4 13 1 19 -5 7 -7 25 -12 40 -12 21 0 28 5 28 20 0 23 -43 44 -74 36 -16 -4
-54 20 -45 28 12 11 48 15 54 6 10 -16 28 -12 21 5 -3 9 0 15 10 15 9 0 14 6
11 13 -2 6 -14 12 -26 11 -11 0 -21 3 -21 8 0 4 -4 8 -10 8 -5 0 -10 -6 -10
-13z"/>
<path d="M10797 9153 c-15 -14 -6 -42 19 -58 32 -21 43 -12 19 15 -22 25 -13
26 23 3 48 -31 53 -39 34 -56 -51 -44 -96 -44 -113 -1 -5 14 -13 22 -19 19
-17 -11 -11 -33 15 -53 46 -36 185 -41 185 -6 0 16 -26 19 -35 4 -3 -5 -13
-10 -22 -10 -12 0 -9 7 11 25 28 26 32 40 16 50 -5 3 -10 16 -10 29 0 12 -5
27 -12 34 -13 13 -100 17 -111 5z"/>
<path d="M10914 8776 c-4 -10 -2 -22 4 -28 6 -6 8 -16 6 -23 -3 -6 2 -18 10
-25 10 -7 14 -21 10 -35 -3 -13 -1 -26 5 -29 5 -4 8 -13 4 -21 -3 -8 -2 -26 1
-40 8 -33 56 -35 80 -2 l17 22 -6 -22 c-5 -17 -2 -23 10 -23 12 0 15 7 13 28
-4 34 -40 42 -64 13 -21 -24 -38 -18 -22 9 9 14 9 22 -1 34 -12 14 -6 16 53
16 62 0 67 -2 76 -26 10 -25 30 -25 30 0 0 27 -37 45 -102 52 -42 4 -69 12
-72 20 -4 11 5 14 38 14 39 0 44 2 39 19 -8 31 -38 52 -82 58 -32 4 -42 2 -47
-11z"/>
<path d="M11090 8009 c0 -7 -14 -8 -40 -4 -32 5 -40 4 -40 -8 0 -9 14 -17 34
-21 19 -4 40 -14 47 -23 12 -15 12 -16 -6 -9 -11 4 -32 10 -47 13 -23 4 -28 2
-28 -14 0 -10 5 -24 12 -31 9 -9 9 -12 0 -12 -17 0 -15 -55 3 -70 21 -17 29
-7 15 19 -6 13 -7 21 -1 21 5 0 16 -12 23 -27 8 -16 23 -29 36 -31 37 -6 26
47 -15 73 -43 27 -41 37 7 29 32 -5 40 -4 40 9 0 9 -5 19 -11 23 -8 4 -7 9 2
15 11 6 11 12 -1 33 -14 27 -30 35 -30 15z"/>
<path d="M4209 6156 c-10 -21 -5 -35 40 -111 55 -94 55 -102 1 -125 -27 -11
-32 -10 -71 24 -65 55 -138 80 -239 80 -74 0 -93 -4 -150 -30 -120 -57 -190
-151 -211 -286 -7 -40 -13 -74 -14 -76 -2 -2 -19 8 -40 22 -65 45 -127 43
-162 -3 -17 -23 -25 -83 -17 -125 l6 -37 32 35 c44 47 90 55 151 26 96 -46
143 -169 95 -247 -24 -41 -60 -64 -99 -65 -30 -1 -31 -2 -14 -21 27 -29 88
-57 127 -57 26 0 40 7 61 32 24 28 26 38 23 97 l-3 66 60 -30 c54 -27 68 -30
160 -30 89 0 106 3 157 28 74 36 139 101 175 175 26 52 28 67 29 171 l0 114
36 18 36 19 53 -90 c45 -76 57 -90 79 -90 28 0 50 16 50 36 0 7 -22 50 -50 97
-27 47 -50 88 -50 91 0 3 21 17 48 32 64 37 82 54 82 76 0 27 -48 98 -66 98
-9 0 -43 -16 -76 -35 -33 -19 -63 -33 -68 -30 -4 3 -30 43 -56 90 -42 76 -51
85 -76 85 -20 0 -32 -7 -39 -24z m-143 -236 c196 -95 224 -363 51 -494 -79
-60 -203 -74 -292 -32 -95 44 -175 163 -175 260 0 50 27 129 59 173 81 112
235 152 357 93z"/>
<path d="M11939 6270 c-239 -38 -435 -215 -495 -451 -23 -89 -15 -260 16 -348
31 -87 110 -202 178 -258 399 -326 992 -51 992 461 0 103 -15 166 -62 266 -72
151 -232 282 -388 318 -69 16 -179 22 -241 12z m222 -106 c315 -93 469 -441
319 -723 -143 -268 -474 -356 -726 -193 -180 117 -271 345 -219 547 46 174
192 323 364 371 66 18 197 17 262 -2z"/>
<path d="M11972 5784 c-41 -21 -62 -60 -62 -114 0 -93 84 -144 175 -106 41 17
65 60 65 116 0 85 -100 143 -178 104z"/>
<path d="M10124 5865 c-4 -8 1 -27 11 -41 9 -14 15 -33 13 -42 -3 -13 -9 -9
-21 16 -20 36 -46 42 -54 12 -3 -11 -14 -20 -24 -20 -11 0 -19 -7 -19 -15 0
-8 -7 -15 -15 -15 -8 0 -17 -11 -21 -25 -7 -28 3 -47 14 -28 4 6 20 -13 39
-48 27 -49 30 -61 18 -65 -21 -9 -19 -36 3 -32 13 3 17 14 18 53 0 28 4 60 8
72 4 12 3 38 -3 58 -12 45 0 53 23 14 18 -30 46 -40 46 -15 0 7 9 16 20 19 14
3 20 14 20 32 0 15 -4 24 -10 20 -5 -3 -19 10 -31 29 -24 40 -27 42 -35 21z"/>
<path d="M9822 5688 c-18 -18 -14 -87 8 -135 19 -42 19 -43 -1 -53 -16 -9 -21
-6 -36 25 -21 43 -41 45 -55 5 -8 -24 -13 -28 -23 -20 -10 9 -19 6 -34 -9 -20
-20 -29 -51 -15 -51 4 0 13 8 20 18 16 21 18 4 4 -34 -9 -21 -8 -31 4 -42 26
-26 48 3 44 55 -2 24 0 43 4 43 5 0 8 8 8 18 1 15 2 15 16 -3 8 -11 12 -30 9
-42 -4 -16 -1 -23 10 -23 8 0 15 -4 15 -10 0 -5 5 -10 10 -10 6 0 10 11 10 25
0 14 8 29 20 35 17 9 20 7 26 -15 5 -19 1 -30 -12 -40 -23 -16 -10 -34 14 -19
12 8 17 26 18 58 0 25 4 49 7 53 12 12 7 25 -7 20 -9 -4 -21 11 -35 45 -25 60
-26 77 -6 84 18 7 20 34 2 34 -7 0 -18 -5 -25 -12z"/>
<path d="M9436 5351 c-4 -5 -4 -28 0 -50 8 -51 -11 -56 -20 -6 -7 36 -32 48
-42 20 -4 -8 -17 -15 -30 -15 -12 0 -29 -8 -36 -19 -8 -11 -25 -18 -42 -18
-17 0 -35 -8 -43 -19 -8 -11 -23 -18 -37 -16 -16 2 -28 -5 -40 -23 -22 -33
-13 -45 14 -20 23 21 26 9 5 -19 -19 -26 -19 -55 0 -62 26 -11 45 16 45 63 0
34 3 41 13 33 6 -6 21 -17 32 -25 20 -14 20 -14 -2 -15 -13 0 -23 -4 -23 -10
0 -5 11 -10 24 -10 38 0 45 38 12 65 -33 26 -33 37 -2 29 17 -4 31 1 46 16 27
27 38 19 16 -12 -20 -28 -21 -57 -1 -64 26 -10 45 16 45 60 0 61 16 78 25 27
8 -48 23 -61 41 -36 13 17 14 17 23 -6 7 -19 5 -27 -12 -41 -24 -19 -15 -38
10 -22 35 22 38 40 19 116 -20 77 -30 96 -40 79z"/>
<path d="M6798 5223 c-10 -2 -18 -9 -18 -15 0 -5 7 -7 16 -4 8 3 -1 -18 -23
-49 -30 -43 -43 -54 -62 -52 -13 1 -26 -4 -28 -10 -7 -20 62 -16 82 4 10 9 28
18 42 19 14 2 37 11 51 20 29 19 82 29 82 16 0 -5 -17 -13 -37 -18 -28 -7 -38
-14 -38 -29 0 -14 8 -21 27 -23 35 -4 78 36 78 74 0 25 -2 26 -40 21 -35 -4
-40 -2 -40 14 0 12 -7 19 -19 19 -11 0 -23 5 -26 10 -6 10 -17 11 -47 3z"/>
<path d="M8904 5097 c4 -22 1 -40 -9 -52 -13 -19 -14 -17 -15 28 0 35 -4 47
-15 47 -9 0 -18 -7 -21 -15 -4 -10 -15 -12 -34 -9 -23 5 -31 1 -45 -20 -22
-33 -12 -46 15 -21 32 29 23 3 -13 -35 l-32 -34 -3 47 c-4 59 -25 59 -30 1 -2
-22 -12 -49 -23 -60 -15 -16 -17 -24 -8 -29 7 -5 17 -2 23 6 6 8 19 13 29 11
9 -2 20 3 23 12 5 12 9 13 26 3 16 -10 22 -8 39 12 10 13 19 36 19 51 0 16 7
30 15 34 12 4 15 -3 15 -34 0 -41 14 -52 38 -28 9 9 12 5 12 -19 0 -22 -5 -32
-20 -36 -25 -6 -26 -27 -2 -27 27 0 52 32 52 66 0 72 -13 134 -28 134 -11 0
-13 -8 -8 -33z"/>
<path d="M7113 5103 c-24 -9 -13 -25 12 -19 14 4 25 2 25 -4 0 -5 -15 -13 -32
-18 -35 -9 -50 -38 -26 -53 20 -13 24 -11 61 21 43 38 52 38 32 0 -22 -42 -19
-53 10 -48 28 6 29 4 15 -23 -6 -11 -21 -19 -35 -19 -16 0 -25 -6 -25 -15 0
-18 40 -20 62 -2 22 17 89 142 81 150 -12 13 -21 7 -42 -28 -25 -43 -48 -48
-26 -5 22 43 19 53 -15 48 -20 -3 -30 0 -30 9 0 13 -41 17 -67 6z"/>
<path d="M7770 5050 c0 -5 6 -10 14 -10 9 0 12 -7 9 -20 -3 -13 -14 -20 -28
-20 -30 0 -65 -44 -65 -80 0 -24 5 -28 41 -34 25 -4 46 -2 54 4 9 7 15 7 19 1
8 -13 87 -12 104 1 9 8 9 14 2 24 -13 15 4 90 26 115 14 15 11 17 -23 21 -43
6 -55 1 -31 -13 24 -14 11 -49 -19 -49 -17 0 -30 -10 -44 -35 -20 -34 -47 -49
-36 -21 3 8 11 33 18 56 7 23 19 44 26 47 27 10 12 23 -27 23 -22 0 -40 -4
-40 -10z"/>
<path d="M7457 4995 c-10 -21 -26 -37 -42 -41 -14 -3 -25 -10 -25 -14 0 -16
21 -22 34 -10 11 8 15 8 18 -2 4 -10 10 -10 32 0 23 10 26 15 16 27 -14 17 -2
39 23 41 21 2 20 5 2 -39 -20 -48 -20 -47 15 -47 29 0 80 37 80 57 0 4 14 9
30 10 39 3 39 -9 0 -24 -31 -12 -42 -47 -17 -56 35 -12 77 36 77 88 0 27 -25
34 -60 15 -13 -7 -19 -6 -23 4 -7 18 -67 26 -92 13 -13 -7 -20 -7 -23 2 -7 22
-28 11 -45 -24z"/>
<path d="M8405 4981 c-10 -59 -31 -71 -26 -15 2 34 0 44 -12 44 -9 0 -19 -5
-22 -10 -5 -8 -11 -7 -21 1 -8 6 -21 8 -31 4 -10 -5 -25 -7 -34 -6 -9 1 -22
-6 -29 -14 -11 -14 -11 -18 -1 -25 10 -5 12 -19 7 -44 -7 -36 -7 -37 21 -30
36 9 60 29 67 60 10 38 26 28 26 -16 0 -43 2 -45 31 -30 15 8 19 7 19 -4 0
-28 -12 -46 -31 -46 -10 0 -19 -7 -19 -15 0 -19 20 -19 47 0 21 15 24 26 37
143 6 56 -19 59 -29 3z"/>
<path d="M8112 4984 c-25 -17 -30 -39 -6 -30 13 5 15 1 10 -22 -3 -15 -8 -44
-12 -64 -5 -32 -10 -38 -30 -38 -13 0 -24 -5 -24 -10 0 -17 27 -23 48 -11 15
8 22 8 25 -2 3 -9 11 -8 33 3 32 17 52 72 53 148 1 46 -10 53 -41 25 -17 -15
-18 -15 -18 0 0 21 -9 21 -38 1z"/>
<path d="M12794 3805 c-4 -9 5 -33 20 -55 15 -22 26 -54 26 -72 l0 -33 -35 53
c-40 59 -70 68 -78 25 -3 -16 -1 -35 4 -43 7 -13 8 -12 9 3 0 30 18 19 46 -29
20 -34 32 -44 48 -42 16 2 22 11 24 36 3 28 6 31 18 21 20 -17 34 3 34 49 0
33 -16 45 -22 15 -2 -11 -14 -1 -38 35 -37 55 -47 61 -56 37z"/>
<path d="M3154 3730 c-41 -13 -72 -46 -56 -62 9 -9 18 -5 36 15 20 22 34 27
72 27 42 0 45 -2 33 -16 -8 -9 -31 -28 -52 -41 -38 -24 -44 -45 -16 -51 9 -1
32 9 53 23 36 25 86 34 86 16 0 -15 -49 -49 -80 -56 -17 -4 -30 -10 -30 -15 0
-14 61 -60 79 -60 14 0 17 -6 14 -23 -8 -39 35 -63 104 -59 29 3 83 49 83 73
0 52 -78 76 -140 44 -20 -10 -30 -12 -30 -4 0 7 -9 9 -25 5 -14 -4 -25 -2 -25
4 0 5 9 10 19 10 20 0 81 65 81 86 0 7 -18 15 -40 19 -36 6 -39 9 -29 27 6 11
7 24 2 28 -13 14 -105 20 -139 10z"/>
<path d="M12552 3687 c-35 -38 -30 -86 18 -143 21 -26 49 -67 62 -91 13 -24
26 -43 29 -43 3 0 16 18 28 41 30 54 23 119 -19 161 -17 17 -30 41 -32 61 -3
28 -7 32 -33 35 -22 2 -37 -4 -53 -21z"/>
<path d="M12504 3491 c-4 -21 -11 -28 -21 -24 -8 3 -19 0 -24 -8 -12 -19 -11
-69 1 -69 6 0 10 8 10 18 0 14 4 12 20 -8 10 -14 27 -42 36 -62 9 -21 20 -38
23 -38 3 0 17 16 30 35 19 29 23 44 19 84 -6 63 -30 101 -63 101 -20 0 -27 -6
-31 -29z"/>
<path d="M12354 3485 c-40 -61 16 -275 74 -283 28 -4 30 23 2 38 -11 6 -27 25
-36 42 l-16 31 31 -22 c17 -12 46 -25 65 -28 32 -5 34 -3 41 27 8 39 0 50 -19
24 -14 -19 -15 -19 -51 1 -47 24 -85 70 -85 100 0 13 12 35 26 49 26 24 26 46
-1 46 -8 0 -22 -11 -31 -25z"/>
<path d="M3570 3380 c0 -5 15 -10 33 -10 21 0 41 -8 52 -21 19 -19 19 -21 0
-55 -32 -60 -126 -100 -174 -75 -24 14 -28 43 -6 61 18 15 20 30 3 30 -17 -1
-58 -35 -58 -49 0 -24 32 -60 62 -70 88 -31 203 22 222 102 7 31 -14 81 -39
91 -26 10 -95 7 -95 -4z"/>
<path d="M3762 3179 c2 -8 17 -15 31 -17 25 -3 35 -20 21 -34 -3 -3 -22 -2
-42 3 -51 11 -82 2 -82 -25 0 -50 54 -60 127 -25 23 11 51 19 60 17 13 -3 4
-14 -35 -42 -63 -46 -66 -69 -9 -74 l39 -3 -39 -29 c-44 -34 -56 -36 -73 -15
-18 21 -40 19 -40 -5 0 -25 43 -44 84 -36 15 3 68 36 117 73 76 58 87 70 75
82 -12 11 -21 9 -59 -19 -29 -21 -53 -30 -71 -28 -26 3 -25 4 21 38 56 41 60
61 16 75 -20 5 -33 16 -33 26 0 24 -24 40 -71 46 -33 5 -41 3 -37 -8z"/>
<path d="M12118 3149 c-59 -34 -28 -179 38 -179 66 0 85 104 29 164 -26 28
-40 31 -67 15z"/>
<path d="M12012 3058 c-6 -7 -13 -25 -17 -39 -5 -21 -11 -25 -33 -21 -80 11
-91 -158 -12 -183 54 -17 95 60 67 126 -10 25 -11 41 -4 59 9 23 13 19 53 -65
24 -49 44 -95 44 -102 0 -7 -9 -17 -20 -23 -28 -15 -26 -42 2 -38 30 4 52 50
44 91 -9 42 -88 201 -102 205 -6 1 -16 -3 -22 -10z"/>
<path d="M11800 2884 c-7 -17 -15 -24 -25 -20 -8 3 -21 -4 -30 -17 -17 -24
-20 -57 -5 -57 6 0 10 8 10 17 0 26 15 4 35 -50 20 -53 31 -65 47 -49 8 8 6
23 -6 52 -17 43 -22 100 -8 100 5 0 19 -25 31 -55 13 -30 29 -55 37 -55 16 0
34 31 34 59 0 25 -17 28 -22 4 -2 -11 -13 5 -27 40 -26 64 -54 76 -71 31z"/>
<path d="M4264 2799 c-30 -33 -72 -51 -112 -47 -28 2 -37 -1 -37 -12 0 -8 11
-17 25 -18 14 -2 29 -10 33 -18 4 -8 23 -14 42 -14 31 0 35 -3 35 -25 0 -48
83 -53 132 -9 10 10 30 18 44 19 24 1 22 -2 -20 -43 -25 -24 -46 -50 -46 -57
0 -16 42 -27 67 -18 11 4 6 -7 -16 -30 -34 -36 -64 -47 -76 -27 -11 17 -35 11
-35 -10 0 -23 52 -36 90 -22 27 11 180 148 180 162 0 4 -8 11 -17 14 -11 5
-28 -5 -53 -29 -24 -23 -45 -35 -64 -35 -28 0 -27 1 20 43 35 32 46 48 41 61
-6 14 -15 17 -42 14 -30 -3 -34 -1 -37 21 -3 28 -45 47 -83 37 -34 -9 -31 -26
4 -26 32 0 48 -14 30 -26 -15 -9 -109 -11 -109 -1 0 4 -8 7 -17 7 -13 1 -2 15
32 45 41 37 47 47 35 55 -21 14 -24 13 -46 -11z"/>
<path d="M4660 2530 c0 -5 8 -10 17 -10 12 0 5 -12 -25 -43 -54 -55 -55 -77
-3 -77 34 0 38 -3 34 -20 -5 -18 0 -20 36 -20 22 0 41 5 41 10 0 6 -8 10 -17
10 -12 0 -3 15 30 48 42 43 46 50 32 62 -13 11 -22 6 -60 -29 -24 -22 -55 -41
-67 -41 -20 0 -18 4 20 43 55 56 55 77 2 77 -22 0 -40 -4 -40 -10z"/>
<path d="M11244 2517 c-3 -8 0 -26 6 -41 12 -33 13 -93 1 -100 -5 -3 -17 20
-27 52 -23 70 -45 79 -67 25 -9 -21 -16 -32 -16 -25 -1 6 -12 12 -25 12 -27 0
-66 -42 -66 -71 0 -27 14 -24 30 6 7 14 17 25 21 25 19 0 19 -23 -1 -55 -26
-43 -24 -89 6 -93 37 -5 56 30 52 97 -1 34 0 61 5 61 4 0 7 7 7 16 0 32 17 3
29 -51 10 -43 17 -55 31 -55 11 0 26 12 34 28 l14 27 10 -25 c24 -65 24 -69
-2 -82 -25 -11 -37 -48 -15 -48 25 0 49 23 58 55 8 29 4 55 -22 145 -30 103
-49 132 -63 97z"/>
<path d="M4810 2440 c0 -5 7 -10 15 -10 24 0 18 -11 -32 -62 -26 -26 -44 -50
-41 -53 3 -4 31 -9 62 -12 49 -5 61 -3 96 21 58 38 67 96 15 96 -12 0 -25 7
-29 15 -6 17 -86 22 -86 5z"/>
<path d="M5090 2421 c0 -5 7 -12 16 -15 15 -6 15 -9 -5 -30 -19 -20 -29 -22
-71 -18 -48 4 -52 3 -91 -36 -51 -51 -51 -85 -1 -90 18 -2 32 -9 32 -16 0 -8
9 -16 19 -19 30 -7 71 4 71 20 0 10 -6 12 -22 7 -20 -6 -18 -2 11 32 75 87
113 124 121 119 5 -3 11 -1 15 4 3 6 -12 19 -34 31 -44 22 -61 25 -61 11z"/>
<path d="M10794 2276 c-3 -9 -17 -16 -30 -16 -16 0 -28 -10 -39 -31 -18 -34
-13 -49 9 -30 12 11 16 6 25 -26 5 -21 11 -49 13 -62 4 -35 20 -35 56 0 36 35
49 85 36 138 -7 29 -14 37 -37 39 -18 2 -29 -2 -33 -12z"/>
<path d="M5193 2253 c-21 -8 -14 -26 8 -20 14 4 18 2 11 -6 -87 -114 -127
-157 -141 -151 -42 17 -51 16 -51 -5 0 -32 78 -30 118 4 18 15 42 25 61 25 38
0 78 19 109 53 31 33 27 71 -8 75 -14 2 -29 10 -33 18 -8 14 -49 18 -74 7z"/>
<path d="M5343 2173 c-26 -10 -12 -24 19 -21 25 2 34 -1 36 -14 3 -14 -4 -18
-30 -18 -49 0 -83 -21 -83 -50 0 -20 6 -26 29 -28 35 -4 81 14 104 42 11 13
29 21 50 21 17 0 32 -2 32 -5 0 -4 -11 -22 -25 -41 -19 -25 -32 -33 -50 -31
-28 4 -34 -12 -9 -22 16 -6 16 -8 0 -24 -22 -25 -20 -32 8 -32 13 0 27 7 30
16 3 9 15 14 28 12 11 -2 23 3 25 10 3 6 -3 12 -12 12 -12 0 -7 11 20 46 19
26 35 56 35 67 0 18 -5 19 -54 14 -45 -4 -54 -3 -49 9 13 33 -55 57 -104 37z"/>
<path d="M10576 2172 c-3 -4 -1 -27 5 -50 9 -41 -1 -92 -19 -92 -5 0 -12 23
-15 52 -4 28 -11 56 -16 61 -14 14 -40 1 -53 -28 -14 -31 -1 -48 15 -20 10 17
13 11 22 -45 8 -54 14 -66 31 -68 13 -2 25 6 34 23 9 17 16 21 21 14 11 -18
36 -4 54 30 13 26 13 31 1 31 -8 0 -16 -6 -19 -12 -2 -7 -10 15 -17 50 -12 57
-29 78 -44 54z"/>
<path d="M10375 2085 c-20 -19 -25 -34 -25 -75 0 -28 5 -60 10 -71 11 -20 54
-26 65 -9 12 19 25 -1 25 -36 0 -28 -5 -36 -25 -44 -27 -10 -34 -40 -10 -40 9
0 27 11 40 25 20 20 25 34 25 78 0 62 -18 166 -33 185 -15 19 -46 14 -72 -13z"/>
<path d="M5940 2060 c0 -5 8 -13 17 -18 16 -9 16 -11 0 -36 -14 -21 -23 -24
-46 -20 -57 12 -136 -57 -129 -113 3 -24 7 -28 36 -28 20 0 32 -5 32 -13 0
-10 11 -13 40 -10 28 2 40 0 40 -9 0 -23 46 -38 75 -25 19 9 25 19 25 42 0 17
-4 39 -9 49 -5 9 -6 23 -1 30 11 19 35 8 35 -15 0 -24 29 -25 33 -1 9 48 -74
67 -102 24 -13 -18 -13 -30 -4 -60 14 -47 4 -58 -25 -26 -12 14 -28 24 -34 22
-7 -3 -13 -2 -13 2 0 17 104 165 116 165 30 0 12 19 -33 34 -55 19 -53 19 -53
6z"/>
<path d="M10230 2030 c-23 -23 -34 -60 -28 -99 3 -24 1 -27 -16 -23 -16 4 -18
1 -14 -16 4 -12 2 -25 -3 -28 -5 -3 -9 9 -9 26 0 34 -35 110 -50 110 -5 0 -20
-16 -34 -36 -22 -33 -25 -34 -31 -15 -10 34 -32 25 -61 -25 -30 -51 -39 -133
-16 -155 20 -21 40 5 24 31 -16 27 -15 55 4 92 14 28 17 29 26 14 5 -10 13
-39 17 -64 4 -32 11 -47 21 -47 12 0 15 14 15 60 0 33 6 69 12 80 11 19 12 19
23 -10 7 -16 10 -47 7 -67 -3 -20 -3 -39 0 -41 9 -10 83 37 89 56 4 14 8 16
14 7 12 -19 60 -15 82 8 28 28 36 104 14 137 -20 31 -58 33 -86 5z"/>
<path d="M5692 2020 c-57 -35 -68 -105 -20 -128 23 -10 33 -10 62 2 36 15 76
67 76 98 0 47 -62 62 -118 28z"/>
<path d="M9752 1864 c-28 -34 -30 -35 -37 -15 -8 27 -17 26 -42 -1 -36 -40
-54 -87 -51 -131 2 -32 8 -43 22 -45 16 -3 18 0 11 19 -13 39 -9 76 10 106 17
26 19 26 26 8 4 -11 8 -34 8 -52 1 -41 10 -63 26 -63 19 0 28 34 20 78 -4 25
-1 43 9 57 14 19 15 19 27 -8 9 -21 10 -36 1 -64 -6 -20 -9 -39 -7 -41 5 -5
64 17 83 31 18 14 15 57 -4 57 -11 0 -15 -6 -11 -19 3 -11 -1 -22 -8 -24 -8
-4 -10 3 -7 19 4 25 -22 109 -38 119 -5 3 -22 -11 -38 -31z"/>
<path d="M6202 1865 c-40 -17 -35 -39 5 -24 27 10 47 1 35 -16 -4 -6 -27 -17
-52 -25 -37 -12 -46 -20 -48 -42 -7 -58 87 -41 125 22 9 16 20 30 24 30 4 0
15 3 24 6 13 5 9 -7 -14 -48 -17 -30 -31 -60 -31 -66 0 -15 45 -16 72 -1 19
10 18 7 -7 -39 -26 -48 -29 -50 -61 -45 -27 4 -34 2 -34 -10 0 -23 34 -30 73
-14 28 12 44 32 90 118 39 73 52 106 44 111 -20 13 -26 9 -43 -24 -21 -43 -54
-78 -72 -78 -10 0 -7 12 12 44 32 55 34 86 5 86 -11 0 -29 -5 -40 -10 -16 -9
-19 -7 -19 9 0 32 -35 39 -88 16z"/>
<path d="M9557 1823 c-4 -3 -7 -28 -7 -54 0 -32 -6 -54 -20 -70 l-19 -24 -1
63 c0 76 -19 92 -57 48 -24 -28 -23 -56 2 -36 12 10 15 1 17 -51 3 -72 16 -82
53 -45 l25 25 0 -54 c0 -51 -1 -54 -27 -57 -17 -2 -29 -10 -31 -20 -5 -28 40
-22 69 8 22 24 24 34 27 150 3 102 1 124 -11 124 -7 0 -17 -3 -20 -7z"/>
<path d="M9361 1764 c-17 -22 -22 -24 -27 -10 -3 9 -16 16 -29 16 -27 0 -75
-36 -75 -56 0 -18 14 -18 30 1 19 23 39 18 46 -11 11 -45 -7 -79 -44 -82 -33
-3 -44 -25 -17 -36 45 -17 95 42 95 110 0 21 3 34 7 31 3 -4 12 -2 20 4 11 9
13 -1 13 -55 0 -51 3 -66 15 -66 17 0 55 39 55 57 0 17 -10 16 -24 -2 -8 -12
-11 0 -11 52 0 78 -18 93 -54 47z"/>
<path d="M6785 1699 c-21 -45 -58 -79 -86 -79 -12 0 -19 -7 -19 -20 0 -22 12
-25 41 -10 13 7 19 7 19 0 0 -14 30 -12 62 4 25 13 27 13 30 -7 7 -53 100 -16
128 52 20 49 10 75 -28 79 -19 2 -44 -4 -58 -13 -29 -18 -23 -41 6 -25 28 15
52 12 48 -6 -3 -14 -60 -42 -98 -48 -9 -1 -21 -5 -28 -10 -17 -10 -15 -2 13
54 30 59 31 70 7 70 -12 0 -25 -14 -37 -41z"/>
<path d="M7602 1728 c-13 -7 -26 -25 -31 -47 -17 -66 -48 -176 -55 -193 -7
-15 -3 -16 31 -12 67 10 124 66 128 127 1 19 11 43 24 56 26 26 27 43 3 64
-21 19 -66 21 -100 5z"/>
<path d="M9170 1700 c0 -42 -23 -100 -40 -100 -6 0 -7 24 -3 60 5 51 3 61 -11
66 -12 5 -27 -2 -44 -19 -27 -28 -24 -50 4 -26 15 12 16 8 13 -51 -4 -56 -2
-65 14 -68 10 -2 27 4 38 14 20 18 20 18 17 -31 -3 -43 -6 -50 -28 -55 -31 -7
-41 -40 -12 -40 31 0 71 38 76 73 3 18 7 74 9 125 4 85 3 92 -14 92 -15 0 -19
-8 -19 -40z"/>
<path d="M7050 1690 c-52 -27 -90 -72 -97 -113 -4 -30 -2 -37 11 -37 11 0 16
9 16 30 0 37 72 117 78 86 6 -27 -5 -59 -29 -84 -11 -13 -18 -26 -15 -29 9
-10 57 -10 88 -2 20 5 31 2 45 -13 35 -39 114 2 132 69 13 45 3 72 -27 80 -38
9 -74 -8 -101 -50 -13 -20 -30 -37 -38 -37 -7 0 -13 -7 -13 -15 0 -8 -7 -15
-16 -15 -14 0 -14 2 0 22 16 23 23 128 9 128 -5 -1 -24 -9 -43 -20z"/>
<path d="M8705 1660 c-16 -18 -20 -19 -27 -5 -12 20 -37 19 -60 -2 -11 -9 -18
-11 -18 -5 0 21 -36 13 -60 -13 -26 -27 -21 -46 6 -24 16 13 16 10 10 -36 -4
-28 -10 -60 -13 -73 -5 -21 -3 -22 23 -16 16 3 39 13 52 21 26 16 62 70 62 93
0 8 9 21 20 28 20 12 20 11 14 -58 -8 -79 1 -87 50 -49 l28 22 -7 -49 c-10
-63 -11 -64 -46 -64 -19 0 -29 -5 -29 -15 0 -10 10 -15 29 -15 48 0 77 44 85
132 4 40 10 90 13 111 5 33 3 37 -16 37 -18 0 -21 -6 -21 -37 0 -34 -31 -103
-45 -103 -3 0 -4 30 -3 67 3 75 -12 92 -47 53z"/>
<path d="M7435 1651 c-33 -14 -56 -47 -62 -90 -7 -50 8 -71 51 -71 43 0 86 45
93 97 8 60 -26 86 -82 64z"/>
<path d="M8357 1622 c-30 -31 -25 -53 5 -25 17 15 18 15 18 -2 0 -9 -7 -57
-16 -106 -16 -87 -17 -89 -45 -89 -32 0 -47 -16 -30 -33 15 -15 60 2 82 33 11
14 26 64 35 112 9 49 20 85 26 82 5 -3 15 0 23 6 19 16 19 -6 1 -105 -15 -85
-20 -95 -52 -95 -15 0 -24 -6 -24 -15 0 -22 42 -19 73 5 20 16 28 36 41 107
23 124 22 153 -6 153 -12 0 -32 -10 -45 -22 l-23 -21 0 21 c0 31 -30 28 -63
-6z"/>
<path d="M7947 1563 c-4 -3 -7 -51 -7 -105 l0 -98 -93 0 c-104 0 -131 -11
-125 -51 3 -24 5 -24 111 -27 l107 -3 0 -67 0 -68 -80 -12 c-146 -21 -217 -68
-265 -175 -26 -56 -28 -72 -33 -234 -4 -155 -7 -173 -22 -173 -10 0 -23 -7
-30 -15 -10 -13 -4 -33 35 -120 46 -100 69 -126 95 -110 18 11 100 184 100
211 0 18 -6 28 -21 31 -20 6 -21 10 -17 177 3 135 8 179 21 211 34 75 80 109
165 121 l52 7 0 -257 0 -256 -25 0 c-44 0 -41 -36 12 -146 42 -85 52 -99 74
-99 20 0 31 14 71 95 51 104 57 143 21 148 l-23 3 0 256 0 256 52 -6 c141 -17
187 -113 188 -389 0 -113 -1 -117 -22 -120 -39 -5 -34 -47 16 -146 25 -50 50
-93 56 -97 26 -16 49 10 95 110 39 87 45 107 35 120 -7 8 -20 15 -30 15 -17 0
-18 15 -22 178 -3 165 -5 181 -29 232 -28 59 -74 112 -120 135 -35 19 -144 45
-186 45 l-33 0 0 70 0 69 103 3 c98 3 102 4 105 26 6 43 -13 52 -114 52 l-94
0 0 93 c0 59 -4 97 -12 105 -13 13 -100 17 -111 5z"/>
</g>
</svg>
